<?xml version="1.0" encoding="UTF-8"?>
<svg id="Capa_2" data-name="Capa 2" xmlns="http://www.w3.org/2000/svg" viewBox="0 0 101 74.81">
  <g id="Capa_1-2">
    <g>
      <g>
        <g>
          <path d="m8.3,39.47S.07,34.67.66,29.25c.21-1.92.85-3.79,1.57-5.58s1.52-3.4,2.42-5.03c.74-1.35,1.61-2.62,2.31-3.99.31-.6.6-1.2.89-1.81.26-.54.54-1.06.72-1.63s.32-1.19.43-1.8c.15-.87.24-1.74.3-2.62.06-.82.17-1.63.2-2.46.03-.76.02-1.6.05-2.38,0-.02.01-.04.03-.05.64-.1,1.2.43,1.59.87,1.35,1.54,2.19,3.58,2.38,5.61.13,1.42.1,2.92-.03,4.33-.11,1.17-.44,2.29-.66,3.43-.35,1.74-.68,3.48-.98,5.23-.12.69-.25,1.38-.31,2.08-.12,1.42.49,2.73,1.28,2.88,0,0-3.26,5.04-4.54,13.12Z" style="stroke-width: 0px;"/>
          <path d="m8.78,40.47l-.79-.46c-.35-.2-8.58-5.07-7.95-10.83.23-2.15.98-4.2,1.61-5.75.67-1.64,1.47-3.3,2.45-5.09.33-.61.69-1.2,1.04-1.78.43-.71.88-1.45,1.26-2.19.26-.5.51-1.02.75-1.53l.26-.54c.21-.43.42-.85.55-1.28.16-.53.3-1.09.41-1.72.16-.92.24-1.85.3-2.56.02-.31.05-.61.08-.92.05-.52.1-1.02.12-1.52.01-.36.02-.74.02-1.12,0-.42,0-.85.03-1.27.01-.32.25-.59.57-.64,1.07-.16,1.89.77,2.15,1.08,1.41,1.61,2.33,3.79,2.54,5.97.13,1.37.12,2.91-.03,4.45-.08.84-.27,1.66-.44,2.44-.08.35-.16.7-.23,1.05-.39,1.94-.71,3.65-.98,5.22l-.06.34c-.1.56-.2,1.13-.25,1.69-.11,1.26.44,2.14.77,2.21l.91.17-.51.78s-3.21,5.04-4.44,12.88l-.14.91ZM10.15,2.68c0,.18,0,.35,0,.53,0,.39,0,.78-.02,1.15-.02.54-.07,1.08-.12,1.59-.03.3-.06.59-.08.89-.06.74-.14,1.71-.31,2.68-.12.68-.26,1.3-.44,1.88-.16.52-.4,1-.62,1.46l-.26.53c-.25.51-.5,1.04-.77,1.56-.4.78-.86,1.54-1.3,2.27-.34.57-.7,1.15-1.02,1.73-.96,1.75-1.74,3.37-2.39,4.96-.6,1.47-1.31,3.41-1.53,5.41-.43,4,4.59,7.79,6.56,9.11,1.11-6.15,3.28-10.37,4.13-11.85-.71-.61-1.14-1.85-1.03-3.17.05-.61.16-1.21.26-1.79l.06-.34c.27-1.58.59-3.3.98-5.25.07-.36.15-.72.24-1.08.18-.78.35-1.52.42-2.29.14-1.47.15-2.93.03-4.21-.18-1.93-.99-3.84-2.23-5.26-.2-.23-.38-.4-.54-.51Z" style="stroke-width: 0px;"/>
        </g>
        <g>
          <path d="m91.82,37.76s1.99,1.76,6.7-3.09c.25-.26.48-.54.67-.84,1.7-2.6,1.27-6.12.54-8.97-.89-3.47-2.43-6.48-4.46-9.42-1.49-2.14-3.12-4.34-3.67-6.94s-1.18-5.17-.78-7.85c0-.02-.02-.04-.04-.03-2.52,1.07-3.78,4.01-4.41,6.49-.35,1.4-.56,2.86-.56,4.3,0,1.79.52,3.48,1.02,5.17.93,3.13.9,6.64.64,9.87,0,0,3.47,4.72,4.35,11.3Z" style="stroke-width: 0px;"/>
          <path d="m92.92,38.71c-.92,0-1.41-.38-1.52-.48l-.18-.15-.03-.23c-.85-6.34-4.2-10.96-4.23-11.01l-.14-.19.02-.23c.2-2.55.36-6.33-.62-9.64l-.05-.16c-.49-1.66-1-3.37-1-5.2,0-1.44.2-2.94.58-4.46.91-3.58,2.56-5.97,4.77-6.91.22-.09.47-.06.66.08.19.15.28.38.24.62-.35,2.36.14,4.64.66,7.06l.12.56c.49,2.29,1.89,4.3,3.25,6.24l.33.47c2.27,3.26,3.71,6.32,4.56,9.62,1.05,4.12.85,7.22-.63,9.47-.22.34-.47.65-.75.93-2.84,2.93-4.82,3.6-6.04,3.6Zm-.53-1.35c.54.18,2.29.36,5.67-3.13.22-.23.42-.48.6-.75,1.27-1.94,1.42-4.71.46-8.47-.8-3.15-2.19-6.08-4.37-9.21l-.33-.47c-1.43-2.05-2.91-4.17-3.44-6.7l-.12-.56c-.44-2.05-.89-4.15-.79-6.32-1.7,1.27-2.62,3.62-3.1,5.52-.36,1.42-.54,2.81-.54,4.15,0,1.64.46,3.19.95,4.84l.05.16c1.01,3.41.88,7.22.68,9.87.66.96,3.42,5.25,4.28,11.07ZM90.2.56s0,0,0,0c0,0,0,0,0,0Z" style="stroke-width: 0px;"/>
        </g>
      </g>
      <g>
        <path d="m13.11,54.02c.85.29,1.09.52,1.2,1.22.32,1.35.77,2.69,1.32,3.96,4.37,10.21,13.43,12.85,23.71,10.6,1.27-.26,2.49-.7,3.85-.79,1.76-.16,3.62-.01,5.37,0,2.56,0,4.99-.14,7.72.29,10.41,2.68,23.95,2.7,28.97-8.61.38-.83.71-1.69.98-2.58.14-.44.26-.89.38-1.35.05-.39.36-.74.75-.94.18-.09.35-.18.64-.26l.74.12c.61.4,1.01,1.04.84,1.72-2.99,16.88-18.97,19.69-33.36,15.97-2.36-.51-5.1-.35-7.68-.36-1.82,0-3.8-.19-5.6.06-8.78,2.33-18.51,2.38-25.29-4.56-2.99-3.06-4.93-7.01-5.93-11.12-.12-.51-.24-1.02-.33-1.54-.17-.71-.07-1.2.7-1.71,0,0,1.02-.12,1.02-.12h0Z" style="stroke-width: 0px;"/>
        <path d="m20.47,51.25c.88.93,1.64,1.94,2.37,2.97.7.95.36,2.31-.69,2.86-1.84,1.24-3.61,2.83-4.53,4.86,0,0-.07.16-.07.16l-.05.16c-.12.3-.2.65-.28.96,0,0-2.98-.3-2.98-.3.04-.51.12-1.08.26-1.58.81-3.11,3.46-5.71,5.92-7.3-.76.46-.88,1.59-.44,2.18-.71-1.05-1.39-2.11-1.96-3.26,0,0,2.46-1.71,2.46-1.71h0Z" style="stroke-width: 0px;"/>
        <path d="m78.1,55.01c-.85.97-1.78,1.85-2.74,2.71.03-.02.13-.12.18-.18.58-.68.42-1.82-.34-2.3-.02-.01-.06-.04-.04-.03.21.13.41.27.61.4,4.6,3.16,7.66,8.66,5.83,14.27,0,0-2.95-.82-2.95-.82,1.16-4.61-1.73-8.6-5.49-10.98-.96-.68-1.02-2.21-.13-2.97.98-.85,1.97-1.67,3.06-2.39,0,0,2.02,2.29,2.02,2.29h0Z" style="stroke-width: 0px;"/>
      </g>
      <path d="m56.2,8.72l-.03,9.9c0,.16.11.31.26.36l10.84,3.42c.28.09.36.46.13.65l-17.76,14.57c-.13.11-.33.11-.47,0l-18.7-14.34c-.24-.18-.18-.56.11-.65l10.71-3.5c.16-.05.27-.21.26-.38l-.5-10.03c0-.19.12-.35.3-.39,1.45-.27,7.66-1.28,14.53,0,.18.03.31.19.31.37Z" style="stroke-width: 0px;"/>
      <g>
        <path d="m39.03,55.46c2.84-.02,5.37.39,7.91.64,5.57.7,11.36-2.43,16.66.13,7.77,5.1-1.22,10.11-6.77,10.94-6.3,1.8-26.71,1.48-25.4-8.17.38-2.76,4.94-3.79,7.59-3.55Zm23.73,3.44c.39-.03.79-.23.87-.67-.05-.87-1.34-.88-1.98-1.18-2.33-.62-4.71-.56-7.03-.16-4.78.81-9.52.87-14.31.03-2.29-.4-4.56-.06-6.55,1.34-.87.47-.66,1.24.25,1.44.6.23,1.19.1,1.74-.06,1.66-.48,3.26-.28,4.86.25,5,1.55,10.32,2.63,15.24.02,1.47-.78,3.09-1.15,4.8-.98.71,0,1.42.04,2.13-.01Z" style="stroke-width: 0px;"/>
        <path d="m48.83,68.1c-1.14,0-2.34-.04-3.57-.14-5.35-.41-9.55-1.73-11.83-3.7-1.64-1.42-2.33-3.19-2.05-5.26.38-2.73,4.76-3.87,7.65-3.61,2.12-.01,4.08.21,5.98.43.63.07,1.29.15,1.93.21,2.24.28,4.54-.06,6.78-.4,3.31-.49,6.72-1,9.91.54,2.36,1.55,3.36,3.19,2.99,4.88-.69,3.18-6.12,5.63-9.78,6.18-1.66.47-4.58.86-8.02.86Zm-10.54-12.61c-2.58,0-6.44,1.03-6.78,3.53-.27,2.02.4,3.75,2.01,5.15,2.26,1.95,6.43,3.26,11.76,3.67,4.91.38,9.34-.09,11.55-.72,3.62-.55,9-2.96,9.68-6.08.36-1.64-.63-3.24-2.93-4.75-3.14-1.52-6.54-1.01-9.83-.52-2.24.33-4.56.68-6.81.4-.64-.06-1.3-.14-1.93-.21-1.9-.22-3.86-.45-5.97-.43h0c-.23-.02-.48-.03-.74-.03Zm10.93,6.05c-2.89,0-5.81-.73-8.64-1.6-1.81-.6-3.35-.68-4.82-.25-.53.15-1.16.3-1.78.06-.46-.1-.79-.37-.83-.7-.04-.32.17-.63.58-.85,1.89-1.33,4.1-1.78,6.59-1.34,4.68.82,9.35.81,14.29-.03,2.66-.45,4.97-.4,7.06.16.18.09.41.14.65.21.63.17,1.34.35,1.38,1.03-.07.43-.42.7-.93.74-.5.04-1.01.03-1.5.02-.21,0-.42,0-.63,0-1.64-.17-3.24.16-4.77.98-2.16,1.15-4.4,1.59-6.65,1.59Zm-11.56-2.25c.92,0,1.89.18,2.96.53,4.99,1.55,10.29,2.63,15.19.02,1.55-.82,3.17-1.16,4.83-.99.2,0,.41,0,.62,0,.49,0,1,.02,1.49-.02v.06s0-.06,0-.06c.17-.01.72-.09.81-.62-.03-.57-.67-.74-1.29-.9-.24-.06-.48-.13-.66-.21-2.07-.55-4.36-.61-7-.16-4.95.84-9.64.85-14.33.03-2.45-.43-4.64.02-6.5,1.33-.37.2-.56.46-.52.72.04.28.32.51.74.6.59.23,1.17.09,1.71-.06.63-.18,1.27-.27,1.94-.27Z" style="stroke-width: 0px;"/>
      </g>
      <path d="m89.48,57.73c-2.46.18-4.1-2.01-4.62-4.07,0,0-.04-.16-.04-.16l-.02-.08s0,0,.01.05c.43,1.6,2.67,1.78,3.36.3-.93,1.82-1.9,3.64-3.66,4.85-1.92,1.29-4.19.45-5.06-1.55-.51-1.12-.69-2.33-.79-3.46-.11-1.34-.09-2.63-.02-3.96-.1,1.86,2.48,2.74,3.48.96.1-.2.06-.13.07-.14,0,0,0,.02,0,.02v.03c-.89,1.82-2.27,5.06-4.69,5.25-3.29,0-3.34-4.17-3.47-6.51,0-.11-.03-.48-.04-.59,0,0,0-.02,0,.04.01.08.04.16.07.23.38,1.05,1.78,1.5,2.72.85.07-.04.15-.12.15-.11l.05-.04s.01-.01.01-.01c0,0,.01-.01,0,0h-.01s-.1.12-.1.12c-1.31,1.54-2.57,3.19-3.93,4.71-.68.73-1.34,1.54-2.25,2.1,0,0-.13.07-.13.07-.07.04-.18.08-.25.11-.76.32-1.72.12-2.29-.54-.51-.53-.74-1.48-.82-2.07-.1-.66-.14-1.41-.24-2.05,0-.02,0-.02,0-.02,0,0,0,.03.1.23.02.03.04.07.06.1.48.79,1.65,1.05,2.41.52,0,0,.07-.05.07-.05.01,0,.04-.03.03-.02-.06.06-.66.7-.74.8-.97,1.02-2.17,2.09-3.69,2.36-1.77.35-3.75-.87-4.59-2.36-1.26-2.25-1.31-4.71-1.86-7.05,0,0-.02-.09-.02-.09h0c.02.1.07.23.12.35.55,1.25,2.36,1.36,3.08.26,0,0-.03.04-.03.04-.04.05-.14.21-.18.26-1.37,1.89-2.74,3.81-4.56,5.34-1.6,1.35-3.4,1.29-4.68-.41-.59-.83-.81-1.65-1.02-2.56,0-.01-.07-.3-.07-.31.02.05.04.11.06.16.6,1.34,2.58,1.37,3.21.02,0-.03.05-.11.05-.13,0,0,0-.02,0,0-.01.05-.04.19-.07.31-.2.93-.42,1.92-1.13,2.73-.63.77-1.97,1.15-2.93.65-.89-.44-1.46-1.21-2.02-1.91-.72-.96-1.32-1.9-1.91-2.85-.39-.63-1.23-2.02-1.54-2.52.78.89,2.18.79,2.82-.25.02-.04.09-.16.09-.19-.02.05-.1.34-.12.4-.34,1.26-.63,2.48-1.12,3.72-.42,1.07-1.13,2.33-2.52,2.42-2,.02-4.13-1.88-5.37-3.27.9,1.06,2.86.55,2.96-1.03-.16,1.82-1.67,3.87-3.25,4.67,0,0-.18.07-.18.07,0,0-.18.07-.18.07,0,0-.09.03-.09.03-.16.05-.34.08-.51.11-.65.09-1.25-.16-1.66-.42-1.89-1.29-3.13-3.17-4.66-4.75,0,0-.08-.08-.08-.08-.02-.02-.04-.04-.03-.03,0,0,.02.02.08.05l.05.03.09.05c.84.41,1.97-.07,2.26-.97.04-.12.07-.25.08-.38,0-.08,0-.06,0-.04.04.44.15.95.23,1.49.53,3.15,1.34,8.98-3.22,9.4-4.78.16-8.13-5.63-10.74-8.71.32.15.75.14,1.09-.07,0,0,.45-.43.45-.43.03-.03.06-.09.07-.12-.37,1.38-.6,3.02-1,4.41-.38,1.4-1.2,3.5-3.09,3.15-1.74-.42-2.52-2.14-3.21-3.55-.24-.54-.45-1.07-.65-1.65,0,0,.27.48.27.48.23.59,1.72.53,1.85.22.26-.2.29-.3.33-.33.05-.08.05-.08.07-.13,0-.02,0,.01,0,.04,0,0-.07.25-.07.25-.47,1.63-.98,3.25-2.32,4.46-1.64,1.49-4.19,1-5.47-.66-1.94-2.44-2.32-6.22-2.46-9.16-.13-9.36,3.34-18.63,9.17-25.91,5.36-6.81,13.62-10.53,21.85-12.47,8.28-2.04,16.77-1.79,24.97.4,11.47,2.71,22.35,9.5,28.32,19.88,2.69,4.64,3.88,10.12,3.9,15.43,0,.12.01.43,0,.56-.04,1.26-.11,2.63-.22,3.88-.14,1.66-.32,3.31-.64,5.01-.45,2.1-1.1,5.39-3.81,5.67h0Zm-.26-3.79c-.21.01-.39.08-.54.19-.06.05-.03.03.01-.03.41-.76.65-1.78.83-2.75.47-2.61.65-5.44.73-8.13.02-.31-.03-.78-.03-1.09-.1-4.58-1.15-9.03-3.45-12.99-3.85-6.56-10.17-11.68-17.07-14.78-4.26-1.88-8.82-3.12-13.41-3.92-12.05-2.26-29.47,1.45-37.53,11.14-5.9,7.04-9.66,16.66-9.07,25.9.16,1.65.38,3.5,1.27,4.86.21.25.27.34.5.42.18.03.18.06.4-.08.97-.84,1.32-2.33,1.82-3.5,0,0,.05-.1.05-.1.02-.04.04-.08.1-.16.05-.06.09-.17.37-.39.15-.33,1.67-.39,1.92.22l.27.48h0c.31.91.73,1.88,1.2,2.62.16.23.42.62.6.73,0,0,0,0-.08-.03,0,0-.17-.03-.27,0-.1,0-.22.06-.27.08-.03.01-.07.04-.08.05-.01,0-.03.02-.04.03-.01.02-.01.02-.01.01,0,0,.02-.03.03-.04,0,0,.05-.09.05-.09.56-1.16.85-2.94,1.12-4.24.12-.57.23-1.2.47-1.76.07-.14.23-.41.33-.56,0,0,.28-.16.28-.16.55-.33,1.21-.27,1.73.02.51.29.88.67,1.24,1.04,1.02,1.09,1.95,2.24,2.93,3.31,1.24,1.3,3.29,3.55,5.06,3.41.22-.24.29-.93.32-1.4.04-.81-.04-1.71-.17-2.62-.1-.67-.21-1.45-.34-2.12-.06-.48-.18-.92-.16-1.46.03-1.32,1.4-2.18,2.58-1.6.14.06.35.2.45.28.65.54,1.2,1.23,1.74,1.83.9.99,1.7,2.01,2.71,2.77.02.02.04,0-.1-.03-.08-.02-.19-.05-.44-.04,0,0-.04,0-.04,0-.01,0,0,0-.01,0h-.01s-.02,0-.02,0c-.02,0-.03,0-.05.01-.08.02-.01.01.08-.06.43-.32,1.01-1.1,1.14-1.64.02-.38.24-.96.59-1.24.77-.74,2.06-.58,2.67.23.05.06.26.27.32.34.66.64,1.49,1.37,2.32,1.64-.11,0-.25,0-.36.02-.33.07-.5.18-.66.35,0,0,.03-.05.06-.1.62-1.27.9-2.82,1.3-4.2.06-.21.15-.48.28-.7.67-1.11,2.07-1.21,2.92-.31.14.15.28.36.39.53.4.63,1.11,1.8,1.52,2.45.79,1.21,1.52,2.48,2.5,3.43.02.02-.01,0-.02-.01,0,0-.04-.02-.06-.03-.18-.08-.4-.13-.6-.11-.21-.01-.62.2-.68.31-.05.05-.04.06-.03.03.35-.74.25-1.79.86-2.49.99-1.15,2.83-.67,3.2.76.16.55.25,1.3.55,1.76.03.04.01,0-.11-.06-.03-.02-.08-.04-.12-.04-.17-.05-.45-.03-.59.02,0,0,.01,0,.03-.02.66-.45,1.18-1.07,1.73-1.7.66-.77,1.29-1.61,1.91-2.46.06-.09.51-.71.57-.8.25-.42.69-.78,1.18-.89,1.08-.29,2.17.47,2.34,1.54.36,1.57.58,3.43.99,4.86.25.75.51,1.54,1.25,1.69.08,0,.36-.12.65-.35.47-.33,1.07-1.02,1.5-1.49.19-.22.52-.55.82-.73.88-.58,2.17-.27,2.7.63.35.59.37,1.03.45,1.6.05.54.13,1.49.26,1.96,0,0,0-.02-.04-.08-.02-.04-.03-.05-.08-.12-.43-.54-1.24-.75-1.86-.51-.05.02-.12.05-.17.08-.02.02.04-.03.11-.09,1.55-1.46,2.93-3.33,4.32-4.98.33-.39.81-1.02,1.18-1.37.09-.08.12-.11.27-.22.09-.05-.03,0,.24-.14.31-.15.67-.21,1-.17.79.08,1.45.68,1.64,1.4.13.44.12.89.15,1.31.02.81.11,1.88.24,2.61.06.29.12.55.21.73,0,0,0-.02-.03-.05-.28-.35-1.01-.44-1.31-.23-.04.03.11-.08.24-.25.62-.77,1.21-1.94,1.63-2.9.32-.89,1.53-1.42,2.42-1.04.68.2,1.28,1.07,1.24,1.76,0,0,0,.17,0,.17,0,0,0,.06,0,.06-.05,1.11-.07,2.28.03,3.37.09.8.2,1.76.52,2.3-.1-.11-.41-.18-.54-.12,0,0,.03,0,.07-.04,1.07-.84,1.74-2.26,2.38-3.48.78-1.36,2.92-1.23,3.53.23.1.2.12.41.19.62.17.49.4.96.66,1.12h0Z" style="stroke-width: 0px;"/>
    </g>
  </g>
</svg>