<svg width="93" height="90" viewBox="0 0 93 90" fill="none" xmlns="http://www.w3.org/2000/svg">
<path fill-rule="evenodd" clip-rule="evenodd" d="M82.5355 25.6661C82.279 25.6807 82.0207 25.6881 81.7607 25.6881C74.1556 25.6881 67.9905 19.3741 67.9905 11.5853C67.9905 10.616 68.086 9.66961 68.2679 8.75535C61.3386 3.86886 52.9419 1.00819 43.8927 1.00819C20.1269 1.00819 0.860901 20.7396 0.860901 45.0794C0.860901 69.4193 20.1269 89.1507 43.8927 89.1507C67.6585 89.1507 86.9245 69.4193 86.9245 45.0794C86.9245 38.1125 85.3461 31.5232 82.5355 25.6661Z" fill="#E47120"/>
<path d="M81.717 15.5185V11.6667M81.717 7.81481H81.7264M91.1195 11.6667C91.1195 16.985 86.9098 21.2963 81.717 21.2963C76.5241 21.2963 72.3145 16.985 72.3145 11.6667C72.3145 6.34836 76.5241 2.03703 81.717 2.03703C86.9098 2.03703 91.1195 6.34836 91.1195 11.6667Z" stroke="#E47120" stroke-width="2" stroke-linecap="round" stroke-linejoin="round"/>
<path d="M17.548 46.2616C17.548 46.2616 12.4542 43.24 12.8142 39.8269C12.9424 38.6172 13.3369 37.4377 13.7856 36.3134C14.2343 35.189 14.7274 34.1751 15.2846 33.1462C15.7432 32.2979 16.2807 31.4948 16.7146 30.6365C16.9069 30.2601 17.0845 29.8786 17.2669 29.4972C17.4296 29.1558 17.6022 28.8296 17.7107 28.4682C17.8192 28.1068 17.9079 27.7153 17.972 27.3338C18.0657 26.7867 18.12 26.2346 18.1594 25.6875C18.1989 25.1705 18.263 24.6586 18.2827 24.1365C18.3024 23.6547 18.2925 23.1277 18.3123 22.6358C18.3123 22.6207 18.3221 22.6057 18.332 22.6057C18.7265 22.5454 19.0766 22.8767 19.3133 23.1528C20.1466 24.1265 20.6693 25.4114 20.7876 26.6864C20.8715 27.5798 20.8517 28.5234 20.7679 29.4168C20.6989 30.1497 20.4967 30.8574 20.3586 31.5802C20.1417 32.6744 19.9395 33.7736 19.7521 34.8728C19.6782 35.3045 19.5943 35.7412 19.5598 36.1829C19.4859 37.0763 19.8655 37.8995 20.3488 37.9948C20.3488 37.9948 18.332 41.167 17.543 46.2616H17.548Z" fill="white"/>
<path d="M17.8389 46.894L17.3507 46.6029C17.1338 46.4724 12.045 43.4056 12.4296 39.7867C12.5726 38.4315 13.041 37.1415 13.4256 36.1678C13.8399 35.1338 14.333 34.0848 14.9395 32.9605C15.1466 32.579 15.3685 32.2026 15.5854 31.8412C15.8517 31.3945 16.1278 30.9277 16.3645 30.4609C16.5272 30.1446 16.6801 29.8184 16.833 29.4972L16.9957 29.1609C17.1288 28.8848 17.2521 28.6288 17.3359 28.3578C17.4395 28.0265 17.5184 27.6701 17.5874 27.2736C17.686 26.6964 17.7353 26.1091 17.7699 25.6624C17.7847 25.4667 17.8044 25.2759 17.8192 25.0852C17.8488 24.7589 17.8783 24.4477 17.8931 24.1265C17.903 23.9006 17.903 23.6597 17.9079 23.4238C17.9079 23.1578 17.9129 22.8867 17.9227 22.6257C17.9326 22.4199 18.0805 22.2543 18.2728 22.2242C18.9336 22.1188 19.4415 22.7111 19.6042 22.9018C20.477 23.9157 21.049 25.286 21.1723 26.6613C21.2511 27.5196 21.2462 28.4933 21.1525 29.467C21.1032 29.9991 20.9898 30.5111 20.8764 31.0029C20.8271 31.2238 20.7778 31.4446 20.7334 31.6655C20.4918 32.8902 20.2945 33.9643 20.1318 34.9481L20.0924 35.1639C20.0332 35.5153 19.9691 35.8717 19.9395 36.223C19.8705 37.0161 20.2107 37.5732 20.4178 37.6134L20.9849 37.7238L20.6742 38.2157C20.6545 38.2458 18.687 41.3879 17.9227 46.3269L17.834 46.8991L17.8389 46.894ZM18.687 23.0976C18.687 23.208 18.687 23.3184 18.687 23.4288C18.687 23.6748 18.6821 23.9207 18.6722 24.1566C18.6574 24.4979 18.6279 24.8342 18.5983 25.1605C18.5785 25.3462 18.5638 25.5369 18.549 25.7226C18.5144 26.1894 18.4602 26.7968 18.3566 27.4091C18.2827 27.8408 18.1939 28.2273 18.0805 28.5937C17.9819 28.925 17.834 29.2211 17.6959 29.5122L17.5381 29.8435C17.3852 30.1647 17.2274 30.496 17.0598 30.8223C16.8083 31.3141 16.5272 31.791 16.256 32.2477C16.044 32.6041 15.827 32.9705 15.6298 33.3369C15.0381 34.4361 14.5548 35.4601 14.1505 36.4639C13.7807 37.3875 13.3418 38.6122 13.2038 39.872C12.9325 42.3967 16.044 44.7809 17.262 45.6141C17.9474 41.7442 19.2886 39.084 19.8162 38.1504C19.3774 37.7639 19.1062 36.9859 19.1801 36.1578C19.2146 35.7763 19.2787 35.3948 19.3428 35.0284L19.3774 34.8126C19.545 33.8188 19.7423 32.7396 19.9839 31.5049C20.0283 31.274 20.0776 31.0481 20.1318 30.8223C20.2403 30.3304 20.3438 29.8636 20.3932 29.3817C20.4819 28.4582 20.4868 27.5396 20.4129 26.7265C20.2995 25.5118 19.7965 24.3072 19.0322 23.4138C18.9089 23.2682 18.7955 23.1628 18.6969 23.0925L18.687 23.0976Z" fill="white"/>
<path d="M69.215 45.1875C69.215 45.1875 70.4477 46.2967 73.362 43.24C73.5148 43.0794 73.6578 42.8987 73.7811 42.7079C74.8363 41.0716 74.5651 38.8531 74.1164 37.0612C73.5691 34.8778 72.6124 32.9805 71.355 31.1334C70.4379 29.7833 69.427 28.3979 69.0818 26.7616C68.7367 25.1253 68.3521 23.5041 68.5986 21.8176C68.5986 21.8026 68.5887 21.7976 68.574 21.8026C67.0158 22.4802 66.2367 24.3273 65.8471 25.8883C65.6252 26.7717 65.5019 27.6902 65.497 28.5987C65.497 29.723 65.8175 30.7871 66.1282 31.8562C66.7002 33.8238 66.6854 36.0373 66.5227 38.0701C66.5227 38.0701 68.6676 41.0466 69.2101 45.1825L69.215 45.1875Z" fill="white"/>
<path d="M69.9004 45.7848C69.3284 45.7848 69.0276 45.5438 68.9586 45.4836L68.8501 45.3882L68.8304 45.2427C68.3077 41.2574 66.2317 38.3361 66.212 38.311L66.1282 38.1906L66.138 38.045C66.2663 36.4338 66.3599 34.0547 65.7584 31.9717L65.7288 31.8763C65.423 30.8323 65.1124 29.7531 65.1124 28.6037C65.1124 27.6952 65.2357 26.7516 65.4724 25.7979C66.0345 23.5443 67.0552 22.0385 68.4211 21.4462C68.5542 21.386 68.712 21.406 68.8254 21.4964C68.9389 21.5867 68.998 21.7323 68.9783 21.8829C68.7613 23.3736 69.0621 24.8142 69.3826 26.335L69.4566 26.6863C69.7574 28.1269 70.6253 29.3917 71.4685 30.6215L71.6706 30.9176C73.071 32.9755 73.9685 34.8979 74.4912 36.9759C75.142 39.5709 75.0138 41.5234 74.1016 42.9388C73.9635 43.1496 73.8107 43.3504 73.6381 43.5261C71.8827 45.3682 70.6548 45.7948 69.9004 45.7948V45.7848ZM69.57 44.9365C69.9004 45.052 70.9901 45.1624 73.0809 42.9689C73.219 42.8234 73.3422 42.6678 73.4507 42.4971C74.2347 41.2774 74.3284 39.5307 73.7367 37.1616C73.2387 35.179 72.3807 33.3369 71.0345 31.3593L70.8324 31.0682C69.9497 29.7782 69.0325 28.4431 68.7022 26.847L68.6282 26.4956C68.357 25.2057 68.0759 23.8806 68.14 22.5103C67.0848 23.3084 66.5177 24.7941 66.2219 25.9887C66 26.8821 65.8866 27.7605 65.8866 28.6037C65.8866 29.6377 66.1726 30.6165 66.4734 31.6504L66.5029 31.7458C67.1292 33.8941 67.0503 36.2933 66.927 37.9597C67.3363 38.562 69.0424 41.2624 69.575 44.9315L69.57 44.9365Z" fill="white"/>
<path d="M20.5214 55.4268C21.049 55.6075 21.192 55.7531 21.261 56.1948C21.4632 57.0481 21.7393 57.8863 22.0796 58.6894C24.7818 65.1191 30.3883 66.7805 36.7444 65.3651C37.5284 65.2044 38.2878 64.9234 39.131 64.8681C40.2158 64.7678 41.3696 64.8581 42.4545 64.8631C44.0373 64.8681 45.5413 64.7778 47.2277 65.0438C53.6676 66.7303 62.0453 66.7454 65.1519 59.623C65.3885 59.101 65.5907 58.5589 65.7584 58.0018C65.8422 57.7207 65.9211 57.4396 65.9951 57.1535C66.0246 56.9075 66.2169 56.6917 66.4586 56.5612C66.5671 56.506 66.6805 56.4458 66.858 56.3956L67.3166 56.4709C67.6962 56.7268 67.9428 57.1234 67.8343 57.55C65.9852 68.1809 56.0985 69.9477 47.1981 67.6087C45.7385 67.2874 44.0422 67.3929 42.4495 67.3828C41.3203 67.3828 40.0974 67.2624 38.983 67.423C33.554 68.8886 27.5333 68.9187 23.332 64.5519C21.4829 62.6195 20.2798 60.1349 19.6585 57.545C19.5796 57.2238 19.5105 56.9025 19.4563 56.5763C19.3527 56.1296 19.4168 55.8234 19.8902 55.5021L20.5214 55.4268Z" fill="white"/>
<path d="M25.0727 53.6801C25.6151 54.2624 26.0835 54.8998 26.5372 55.5473C26.9711 56.1496 26.7591 57.0029 26.1082 57.3492C24.9691 58.1322 23.8745 59.1361 23.3025 60.406L23.2581 60.5064L23.2236 60.6068C23.1496 60.7975 23.1003 61.0183 23.051 61.2141L21.2068 61.0234C21.2314 60.7021 21.2808 60.3407 21.3646 60.0295C21.8626 58.067 23.5046 56.4357 25.0234 55.4369C24.5549 55.728 24.481 56.4407 24.7522 56.8072C24.3133 56.1496 23.8893 55.477 23.5441 54.7543L25.0678 53.6751L25.0727 53.6801Z" fill="white"/>
<path d="M60.7287 56.0492C60.2011 56.6616 59.6242 57.2137 59.0325 57.7558C59.0522 57.7407 59.1114 57.6755 59.141 57.6404C59.5009 57.2087 59.3974 56.496 58.9289 56.1898C58.9191 56.1797 58.8944 56.1647 58.8993 56.1697C59.0275 56.255 59.1557 56.3404 59.2741 56.4257C62.1193 58.4183 64.0128 61.8817 62.8787 65.4102L61.0542 64.8932C61.7741 61.9921 59.9842 59.4774 57.6567 57.9817C57.065 57.55 57.0256 56.5863 57.5778 56.1095C58.1843 55.5724 58.8007 55.0604 59.4664 54.6037L60.7189 56.0492H60.7287Z" fill="white"/>
<path d="M47.1833 26.8972L47.1685 33.1311C47.1685 33.2365 47.2326 33.3269 47.3312 33.357L54.0374 35.5103C54.2149 35.5655 54.2593 35.8014 54.1163 35.9168L43.13 45.0921C43.0462 45.1624 42.9278 45.1624 42.8391 45.0921L31.266 36.0624C31.1181 35.947 31.1575 35.7111 31.335 35.6508L37.9623 33.4473C38.0609 33.4122 38.125 33.3168 38.1201 33.2114L37.8094 26.8972C37.8045 26.7817 37.8834 26.6763 37.9968 26.6512C38.8943 26.4806 42.7355 25.8431 46.986 26.6512C47.0945 26.6713 47.1783 26.7717 47.1783 26.8871L47.1833 26.8972Z" fill="white"/>
<path d="M36.557 56.3353C38.3124 56.3253 39.8755 56.5813 41.4535 56.7419C44.9002 57.1786 48.4801 55.211 51.7642 56.8222C56.5719 60.0295 51.0097 63.1867 47.5778 63.7137C43.6823 64.8481 31.054 64.6473 31.8676 58.5689C32.1043 56.8322 34.9248 56.1797 36.5619 56.3303L36.557 56.3353ZM51.2415 58.5037C51.4831 58.4836 51.7346 58.3631 51.779 58.082C51.7494 57.5299 50.9506 57.5249 50.5512 57.3392C49.1113 56.9477 47.6369 56.9878 46.1971 57.2388C43.2385 57.7508 40.3045 57.7859 37.3459 57.2589C35.9307 57.0079 34.5254 57.2237 33.2976 58.1021C32.7601 58.3932 32.8932 58.8801 33.4504 59.0056C33.8203 59.1512 34.1901 59.0658 34.5254 58.9654C35.556 58.6643 36.5422 58.7898 37.5333 59.1261C40.625 60.1048 43.919 60.7874 46.9614 59.1361C47.8687 58.6442 48.8746 58.4083 49.9298 58.5187C50.3687 58.5187 50.8076 58.5438 51.2464 58.5087L51.2415 58.5037Z" fill="white"/>
<path d="M42.6172 64.2959C41.912 64.2959 41.1724 64.2708 40.413 64.2106C37.0994 63.9496 34.5008 63.1214 33.0954 61.8817C32.0796 60.9832 31.6506 59.8689 31.8232 58.5689C32.0648 56.7871 34.9889 56.1546 36.557 56.2952C37.8686 56.2851 39.0817 56.4307 40.2552 56.5662C40.6497 56.6114 41.0541 56.6616 41.4535 56.7017C42.8391 56.8774 44.2641 56.6616 45.6448 56.4508C47.6912 56.1396 49.8066 55.8183 51.774 56.7871C53.2336 57.7608 53.8549 58.7948 53.6232 59.8639C53.1942 61.8616 49.8362 63.4075 47.5728 63.7539C46.5423 64.055 44.7375 64.2959 42.6122 64.2959H42.6172ZM36.0935 56.3554C34.5008 56.3554 32.1092 57.0079 31.8972 58.579C31.7295 59.8488 32.1487 60.943 33.1447 61.8214C34.5402 63.0512 37.124 63.8743 40.418 64.1303C43.4554 64.3712 46.1922 64.0751 47.563 63.6786C49.8066 63.3322 53.1301 61.8114 53.5541 59.8488C53.776 58.8149 53.1646 57.811 51.7395 56.8573C49.7918 55.8987 47.6912 56.2199 45.6596 56.5311C44.274 56.7419 42.8391 56.9577 41.4485 56.7821C41.0491 56.7419 40.6448 56.6917 40.2503 56.6465C39.0767 56.511 37.8686 56.3655 36.557 56.3755C36.414 56.3604 36.2611 56.3554 36.0984 56.3554H36.0935ZM42.8588 60.1651C41.0688 60.1651 39.2641 59.7083 37.5136 59.1562C36.3893 58.7797 35.4426 58.7295 34.5303 58.9956C34.2 59.0909 33.8153 59.1863 33.4307 59.0357C33.1447 58.9705 32.9426 58.8048 32.9179 58.594C32.8883 58.3932 33.0215 58.1975 33.2779 58.062C34.4465 57.2288 35.8173 56.9427 37.3558 57.2137C40.2503 57.7307 43.1399 57.7257 46.1971 57.1936C47.8391 56.9075 49.2691 56.9427 50.566 57.294C50.6794 57.3492 50.8224 57.3844 50.9703 57.4245C51.3598 57.5299 51.7987 57.6454 51.8234 58.072C51.779 58.3431 51.5669 58.5137 51.2514 58.5388C50.9407 58.5639 50.6251 58.5589 50.3194 58.5539C50.1912 58.5539 50.063 58.5539 49.9298 58.5539C48.9141 58.4485 47.9229 58.6593 46.9811 59.1662C45.6448 59.889 44.2592 60.1651 42.8687 60.1651H42.8588ZM35.7088 58.7496C36.2808 58.7496 36.8824 58.86 37.5432 59.0809C40.63 60.0597 43.9091 60.7373 46.9417 59.0959C47.8983 58.579 48.9042 58.3681 49.9298 58.4736C50.0531 58.4736 50.1863 58.4736 50.3145 58.4736C50.6202 58.4736 50.9308 58.4836 51.2366 58.4585C51.3401 58.4485 51.6853 58.3983 51.7395 58.067C51.7198 57.7056 51.3253 57.6002 50.9456 57.4998C50.7928 57.4597 50.6498 57.4195 50.5364 57.3643C49.2592 57.018 47.8391 56.9828 46.2069 57.2639C43.1448 57.796 40.2454 57.801 37.341 57.284C35.8272 57.0129 34.4712 57.294 33.3173 58.1172C33.0905 58.2427 32.9721 58.4083 32.9968 58.5739C33.0215 58.7496 33.199 58.8952 33.4554 58.9504C33.8252 59.0959 34.1802 59.0106 34.5106 58.9102C34.9002 58.7948 35.2946 58.7396 35.7088 58.7396V58.7496Z" fill="white"/>
<path d="M67.7702 57.7658C66.2465 57.8813 65.2357 56.501 64.9102 55.206L64.8856 55.1056L64.8708 55.0554C64.8708 55.0554 64.8708 55.0554 64.8806 55.0905C65.1469 56.0994 66.5325 56.2098 66.9566 55.2813C66.3846 56.4257 65.7781 57.5751 64.6883 58.338C63.5 59.1461 62.0996 58.6241 61.5571 57.3593C61.2366 56.6566 61.1282 55.8936 61.069 55.1809C61.0049 54.3377 61.0147 53.5245 61.0542 52.6863C60.9901 53.8558 62.5877 54.4129 63.209 53.2936C63.2731 53.1631 63.2485 53.2133 63.2534 53.2033V53.2133L63.2435 53.2334C62.7011 54.3828 61.8481 56.4207 60.354 56.5411C58.3175 56.5411 58.2879 53.916 58.209 52.4404C58.209 52.3701 58.1942 52.1342 58.1843 52.0689C58.1843 52.0689 58.1843 52.0589 58.1843 52.094C58.1942 52.1442 58.209 52.1944 58.2287 52.2396C58.4654 52.9021 59.3283 53.1832 59.9102 52.7767C59.9546 52.7465 60.0039 52.7014 60.0039 52.7064L60.0335 52.6813L60.0433 52.6712H60.0384L59.9792 52.7465C59.1705 53.7203 58.3865 54.7543 57.5482 55.7079C57.1242 56.1697 56.7198 56.6766 56.1577 57.033L56.0788 57.0782C56.0344 57.1033 55.9703 57.1284 55.921 57.1485C55.4476 57.3492 54.8559 57.2237 54.5058 56.8122C54.1902 56.4759 54.0472 55.8786 53.9979 55.5071C53.9388 55.0905 53.9092 54.6238 53.85 54.2172C53.85 54.2072 53.85 54.2021 53.85 54.2071C53.85 54.2071 53.85 54.2222 53.9092 54.3527C53.919 54.3728 53.9338 54.3929 53.9437 54.418C54.2395 54.9149 54.9644 55.0755 55.4378 54.7492L55.4822 54.7141C55.492 54.7091 55.5068 54.694 55.4969 54.699C55.4575 54.7342 55.0926 55.1407 55.0384 55.201C54.4368 55.8434 53.6971 56.521 52.7553 56.6867C51.6606 56.9075 50.4377 56.1396 49.92 55.201C49.136 53.7805 49.1064 52.2346 48.7661 50.7639L48.7563 50.7037C48.7711 50.7689 48.7957 50.8492 48.8352 50.9245C49.1803 51.7126 50.2947 51.7778 50.7385 51.0902L50.7188 51.1203C50.6942 51.1504 50.6301 51.2508 50.6054 51.2859C49.7573 52.4755 48.9091 53.6851 47.7849 54.6539C46.7987 55.5021 45.6843 55.467 44.8904 54.3929C44.5255 53.8709 44.3923 53.3539 44.2592 52.7817C44.2592 52.7766 44.2148 52.5909 44.2148 52.5859C44.2247 52.6211 44.2345 52.6562 44.2543 52.6863C44.6241 53.5295 45.8519 53.5496 46.2415 52.7014C46.2464 52.6813 46.271 52.6361 46.276 52.616C46.276 52.606 46.276 52.611 46.276 52.616C46.2661 52.6461 46.2513 52.7315 46.2316 52.8118C46.1034 53.399 45.9752 54.0164 45.5314 54.5284C45.1418 55.0153 44.3085 55.2512 43.7217 54.9349C43.1744 54.6589 42.8144 54.172 42.4742 53.7303C42.0304 53.128 41.6606 52.5357 41.2957 51.9384C41.0541 51.5369 40.5363 50.6685 40.344 50.3523C40.8272 50.9095 41.6951 50.8492 42.0896 50.1967C42.0994 50.1716 42.1438 50.0913 42.1438 50.0813C42.129 50.1114 42.0846 50.2971 42.0698 50.3323C41.8627 51.1253 41.6803 51.8933 41.3746 52.6763C41.1132 53.3489 40.6793 54.1419 39.8164 54.2021C38.5836 54.2172 37.2621 53.0176 36.4929 52.1442C37.0501 52.8168 38.2582 52.4906 38.3223 51.4967C38.2237 52.6411 37.2917 53.9311 36.3104 54.438L36.2019 54.4832L36.0935 54.5284L36.0392 54.5485C35.9406 54.5786 35.8272 54.6037 35.7236 54.6187C35.3193 54.6739 34.9495 54.5133 34.6931 54.3577C33.5244 53.5446 32.7601 52.3601 31.8134 51.3712L31.7591 51.3211C31.7443 51.306 31.7345 51.296 31.7443 51.306C31.7443 51.306 31.7591 51.316 31.7936 51.3411L31.8232 51.3612L31.8775 51.3913C32.4001 51.6523 33.0954 51.3462 33.2779 50.779C33.3025 50.7037 33.3222 50.6184 33.3272 50.538C33.3272 50.4879 33.3272 50.5029 33.3272 50.5129C33.3518 50.794 33.4159 51.1102 33.4702 51.4516C33.7956 53.4342 34.2986 57.1083 31.478 57.3693C28.5244 57.4697 26.4484 53.8257 24.8311 51.8882C25.0283 51.9836 25.2946 51.9736 25.5066 51.8431L25.7877 51.577C25.8074 51.557 25.8222 51.5218 25.8271 51.5017C25.6003 52.3701 25.4573 53.399 25.2107 54.2774C24.979 55.1608 24.4662 56.4809 23.2975 56.26C22.2176 55.999 21.7393 54.9099 21.3103 54.0214C21.1575 53.6801 21.0293 53.3489 20.906 52.9824L21.0736 53.2836C21.2117 53.655 22.1387 53.6199 22.2176 53.4191C22.3804 53.2936 22.3951 53.2334 22.4198 53.2083C22.4543 53.1531 22.4494 53.1581 22.4642 53.128C22.4691 53.118 22.4642 53.133 22.4592 53.1531L22.4149 53.3087C22.1239 54.3377 21.8133 55.3566 20.9799 56.1195C19.9642 57.0581 18.3912 56.7469 17.5973 55.7029C16.3991 54.167 16.1624 51.7878 16.0785 49.9357C15.9947 44.0381 18.1446 38.2006 21.7492 33.618C25.0677 29.3265 30.1713 26.9825 35.27 25.7628C40.3933 24.4779 45.6448 24.6385 50.7188 26.0188C57.8145 27.7253 64.5453 31.9968 68.2436 38.5369C69.9103 41.4581 70.645 44.9114 70.6548 48.2543C70.6548 48.3346 70.6647 48.5253 70.6598 48.6056C70.6351 49.4037 70.5907 50.262 70.5266 51.05C70.4428 52.094 70.3294 53.138 70.1322 54.2071C69.856 55.5272 69.4566 57.6052 67.7751 57.7809L67.7702 57.7658ZM67.6075 55.3766C67.4793 55.3867 67.3659 55.4268 67.2771 55.4971C67.2426 55.5272 67.2623 55.5172 67.282 55.477C67.5384 54.9952 67.6864 54.3527 67.7949 53.7454C68.0858 52.099 68.1943 50.3172 68.2485 48.6257C68.2584 48.435 68.2337 48.1338 68.2288 47.9431C68.1696 45.057 67.5187 42.2562 66.0937 39.7616C63.712 35.6307 59.8066 32.4083 55.5315 30.4558C52.8983 29.2763 50.0728 28.4933 47.2375 27.9914C39.7819 26.5659 29.0076 28.9049 24.0125 35.0033C20.3636 39.4404 18.0361 45.4937 18.401 51.316C18.4997 52.355 18.6377 53.5195 19.1851 54.3778C19.3182 54.5384 19.3527 54.5886 19.4908 54.6388C19.6042 54.6589 19.5993 54.679 19.7423 54.5886C20.3439 54.0616 20.5608 53.123 20.8715 52.3851L20.9011 52.3249C20.9158 52.2998 20.9257 52.2747 20.9602 52.2245C20.9898 52.1894 21.0194 52.1141 21.192 51.9786C21.2857 51.7678 22.2275 51.7326 22.3804 52.1191L22.548 52.4203C22.7403 52.9925 23.0017 53.6048 23.2877 54.0716C23.3863 54.2172 23.549 54.4631 23.6575 54.5284C23.6575 54.5284 23.6575 54.5284 23.6082 54.5133C23.6082 54.5133 23.5046 54.4932 23.4454 54.5133C23.3813 54.5133 23.3123 54.5535 23.2778 54.5635C23.2581 54.5736 23.2383 54.5936 23.2285 54.5936C23.2186 54.5936 23.2137 54.6037 23.2038 54.6087C23.194 54.6187 23.194 54.6187 23.194 54.6187C23.194 54.6187 23.2038 54.5987 23.2137 54.5886L23.2433 54.5334C23.5884 53.8056 23.766 52.6863 23.9385 51.8581C24.0174 51.4967 24.0815 51.1052 24.2245 50.7489C24.2689 50.6585 24.3675 50.4879 24.4316 50.3975L24.6092 50.2971C24.9494 50.0913 25.3587 50.1265 25.6792 50.3122C25.9948 50.4929 26.2265 50.7338 26.4435 50.9697C27.0747 51.6573 27.6516 52.3851 28.2581 53.0527C29.0224 53.8709 30.2946 55.2863 31.3893 55.201C31.5274 55.0504 31.5668 54.6137 31.5865 54.3176C31.6063 53.8106 31.5619 53.2434 31.483 52.6662C31.4189 52.2496 31.3498 51.7577 31.2709 51.3311C31.2364 51.0299 31.1575 50.7539 31.1723 50.4126C31.192 49.5844 32.0353 49.0423 32.77 49.4037C32.8538 49.4438 32.9869 49.5292 33.0461 49.5794C33.4504 49.9207 33.7858 50.3523 34.126 50.7338C34.6832 51.3562 35.1812 52.0037 35.8025 52.4755C35.8173 52.4855 35.8272 52.4805 35.7384 52.4554C35.6891 52.4404 35.6201 52.4203 35.4672 52.4303H35.4426C35.4426 52.4303 35.4426 52.4303 35.4327 52.4303H35.4228H35.4081C35.3982 52.4303 35.3883 52.4303 35.3785 52.4353C35.3292 52.4454 35.3686 52.4454 35.4278 52.3952C35.6941 52.1944 36.0491 51.7025 36.1329 51.3612C36.1477 51.1253 36.2808 50.7589 36.4978 50.5782C36.9761 50.1164 37.77 50.2118 38.1546 50.7238C38.1842 50.7639 38.3124 50.8944 38.3519 50.9346C38.7562 51.3361 39.274 51.7979 39.7868 51.9635C39.7177 51.9635 39.6339 51.9635 39.5649 51.9786C39.3627 52.0238 39.2542 52.094 39.1556 52.1944C39.1556 52.1944 39.1753 52.1643 39.1951 52.1292C39.5747 51.3311 39.7473 50.3574 39.9988 49.489C40.0333 49.3585 40.0925 49.1828 40.1714 49.0523C40.5856 48.3547 41.4535 48.2894 41.9761 48.8616C42.06 48.9519 42.1487 49.0875 42.2178 49.1929C42.4643 49.5894 42.9081 50.3272 43.1547 50.7388C43.6428 51.4967 44.0915 52.2998 44.6981 52.9021C44.7129 52.9122 44.6882 52.8971 44.6882 52.8971C44.6882 52.8971 44.6635 52.8821 44.6487 52.877C44.5403 52.8268 44.3973 52.7967 44.2789 52.8068C44.1458 52.8017 43.8943 52.9322 43.8549 53.0025C43.8253 53.0377 43.8302 53.0377 43.8401 53.0176C44.057 52.5508 43.9979 51.8882 44.3677 51.4516C44.9791 50.7238 46.1231 51.0299 46.345 51.9334C46.4436 52.2797 46.5028 52.7516 46.6853 53.0377C46.705 53.0628 46.6951 53.0377 46.6162 52.9975C46.6014 52.9875 46.5768 52.9774 46.557 52.9724C46.4436 52.9423 46.2661 52.9423 46.1774 52.9824C46.1724 52.9875 46.1823 52.9824 46.1922 52.9724C46.6014 52.6913 46.9219 52.2948 47.2622 51.9033C47.6665 51.4164 48.061 50.8894 48.4407 50.3523C48.4752 50.2921 48.7563 49.9056 48.7908 49.8454C48.9436 49.5844 49.2149 49.3535 49.5206 49.2832C50.1912 49.1025 50.8667 49.5794 50.9654 50.2519C51.1873 51.2407 51.3253 52.4153 51.5817 53.3137C51.7346 53.7905 51.8973 54.2875 52.3559 54.3778C52.4052 54.3778 52.5778 54.2975 52.7602 54.157C53.0512 53.9461 53.421 53.5145 53.6873 53.2234C53.8056 53.0878 54.0078 52.8821 54.1952 52.7616C54.7376 52.3952 55.5364 52.5909 55.8618 53.1581C56.0788 53.5346 56.0887 53.8056 56.138 54.167C56.1676 54.5033 56.2169 55.1056 56.2958 55.3967C56.2958 55.3967 56.2958 55.3817 56.2711 55.3465C56.2563 55.3214 56.2514 55.3164 56.2218 55.2712C55.9555 54.9299 55.4526 54.7994 55.0729 54.95C55.0433 54.96 54.9989 54.9801 54.9693 55.0002C54.9545 55.0102 54.9989 54.9801 55.0334 54.945C55.99 54.0265 56.848 52.8519 57.706 51.8079C57.9082 51.562 58.209 51.1655 58.4408 50.9446C58.4999 50.8944 58.5147 50.8743 58.6084 50.8091C58.6676 50.774 58.5887 50.8091 58.7613 50.7238C58.9536 50.6334 59.1755 50.5882 59.3826 50.6133C59.8707 50.6635 60.28 51.04 60.3984 51.4917C60.4773 51.7678 60.4723 52.0489 60.4921 52.3199C60.5019 52.8268 60.5562 53.5044 60.64 53.9662C60.6794 54.1519 60.7139 54.3126 60.7731 54.423C60.7731 54.423 60.7682 54.4129 60.7534 54.3929C60.5759 54.167 60.1321 54.1168 59.9398 54.2473C59.9151 54.2624 60.0088 54.1921 60.0877 54.0917C60.4723 53.6048 60.8372 52.872 61.0986 52.2647C61.2958 51.7025 62.0453 51.3712 62.5976 51.6072C63.0167 51.7326 63.3865 52.2848 63.3619 52.7164V52.8218V52.857C63.3323 53.5546 63.3224 54.2875 63.3767 54.9751C63.4309 55.477 63.5 56.0844 63.6972 56.4207C63.6331 56.3504 63.4457 56.3102 63.3619 56.3454C63.3619 56.3454 63.3767 56.3454 63.4063 56.3153C64.067 55.7832 64.4812 54.8898 64.8757 54.1218C65.354 53.2685 66.6805 53.3438 67.0601 54.2674C67.1242 54.3929 67.1341 54.5284 67.1785 54.6589C67.282 54.9651 67.43 55.2662 67.5878 55.3666L67.6075 55.3766Z" fill="white"/>
</svg>
