<svg width="77" height="58" viewBox="0 0 77 58" fill="none" xmlns="http://www.w3.org/2000/svg">
<g clip-path="url(#clip0_1020_524)">
<path d="M6.8981 30.1785C6.8981 30.1785 0.758822 26.5305 1.19267 22.4098C1.34719 20.9494 1.82265 19.5253 2.36347 18.1679C2.9043 16.8105 3.49862 15.5864 4.17019 14.3441C4.72291 13.32 5.37071 12.3504 5.89371 11.3142C6.12549 10.8597 6.33945 10.3992 6.55934 9.93861C6.75547 9.52654 6.96348 9.13265 7.09423 8.69634C7.22498 8.26003 7.33195 7.78736 7.40922 7.32681C7.52214 6.66629 7.58751 5.9997 7.63506 5.33918C7.6826 4.71501 7.75986 4.09691 7.78363 3.46668C7.80741 2.88494 7.79552 2.24865 7.81929 1.65478C7.81929 1.63661 7.83118 1.61843 7.84307 1.61843C8.31852 1.54571 8.74048 1.94566 9.02575 2.27895C10.0301 3.45456 10.6601 5.00589 10.8028 6.54509C10.9038 7.62374 10.88 8.763 10.779 9.84165C10.6958 10.7264 10.4521 11.5808 10.2857 12.4535C10.0242 13.7745 9.78054 15.1016 9.5547 16.4287C9.46555 16.9499 9.36451 17.4771 9.32291 18.0103C9.23377 19.089 9.69139 20.0828 10.2738 20.1979C10.2738 20.1979 7.84307 24.0278 6.89216 30.1785H6.8981Z" fill="#964738"/>
<path d="M7.24875 30.9421L6.66037 30.5906C6.39888 30.433 0.265536 26.7305 0.729102 22.3613C0.901454 20.7251 1.46605 19.1678 1.92962 17.9922C2.42885 16.7438 3.02316 15.4773 3.75417 14.1199C4.00378 13.6594 4.27122 13.2049 4.53272 12.7686C4.85365 12.2292 5.18647 11.6657 5.47174 11.1021C5.66787 10.7203 5.85211 10.3264 6.03634 9.9386L6.23247 9.53259C6.39293 9.1993 6.54151 8.89025 6.64254 8.56302C6.76735 8.16307 6.86244 7.73282 6.94565 7.25409C7.06451 6.5572 7.12394 5.8482 7.16554 5.30887C7.18337 5.07254 7.20715 4.84226 7.22497 4.61199C7.26063 4.2181 7.29629 3.84239 7.31412 3.45456C7.32601 3.18186 7.32601 2.89099 7.33195 2.60618C7.33195 2.28501 7.33789 1.95777 7.34978 1.64266C7.36167 1.39421 7.53996 1.19423 7.77175 1.15787C8.56813 1.03061 9.18027 1.74568 9.3764 1.97595C10.4283 3.20004 11.1177 4.85438 11.2663 6.51478C11.3614 7.55102 11.3555 8.72663 11.2425 9.90224C11.1831 10.5446 11.0464 11.1627 10.9097 11.7566C10.8503 12.0232 10.7909 12.2898 10.7374 12.5565C10.4462 14.0351 10.2084 15.3319 10.0123 16.5196L9.96477 16.7802C9.89345 17.2044 9.81619 17.6346 9.78053 18.0588C9.69733 19.0163 10.1074 19.6889 10.357 19.7374L11.0405 19.8707L10.6661 20.4646C10.6423 20.5009 8.27097 24.2944 7.34978 30.2573L7.2428 30.9481L7.24875 30.9421ZM8.27097 2.21229C8.27097 2.3456 8.27097 2.47892 8.27097 2.61224C8.27097 2.90917 8.26503 3.2061 8.25314 3.49092C8.23531 3.90299 8.19965 4.309 8.16399 4.70289C8.14022 4.9271 8.12239 5.15738 8.10456 5.38159C8.06296 5.94516 7.99759 6.6784 7.87278 7.4177C7.78363 7.93885 7.67665 8.40546 7.53996 8.84783C7.4211 9.24778 7.2428 9.60531 7.0764 9.95678L6.88621 10.3567C6.70198 10.7446 6.5118 11.1445 6.30973 11.5384C6.00663 12.1323 5.66787 12.708 5.34099 13.2594C5.08544 13.6897 4.82394 14.132 4.58621 14.5744C3.87303 15.9015 3.2906 17.1377 2.80326 18.3497C2.35753 19.4647 1.82859 20.9433 1.66218 22.4643C1.3353 25.5124 5.08544 28.3909 6.5534 29.3968C7.3795 24.7247 8.99604 21.5129 9.63195 20.3858C9.10301 19.9192 8.77614 18.9799 8.86529 17.98C8.90689 17.5195 8.98415 17.0589 9.06141 16.6166L9.10301 16.356C9.30508 15.1561 9.54281 13.8533 9.83402 12.3625C9.88751 12.0838 9.94694 11.8111 10.0123 11.5384C10.1431 10.9445 10.2679 10.381 10.3273 9.79923C10.4343 8.68421 10.4402 7.57526 10.3511 6.59356C10.2144 5.12708 9.60818 3.67271 8.68699 2.59406C8.53841 2.41832 8.40172 2.29106 8.28286 2.20623L8.27097 2.21229Z" fill="#964738"/>
<path d="M69.1705 28.8817C69.1705 28.8817 70.6563 30.2209 74.1687 26.5305C74.3529 26.3366 74.5253 26.1184 74.6738 25.8881C75.9457 23.9126 75.6188 21.2342 75.078 19.0708C74.4183 16.4348 73.2653 14.1441 71.7498 11.9141C70.6444 10.284 69.426 8.6115 69.01 6.63599C68.594 4.66047 68.1304 2.70314 68.4276 0.667028C68.4276 0.648848 68.4157 0.642789 68.3979 0.648848C66.5198 1.46693 65.5808 3.69696 65.1113 5.58157C64.8439 6.64811 64.6953 7.75706 64.6893 8.85389C64.6893 10.2113 65.0756 11.496 65.4501 12.7867C66.1395 15.1622 66.1216 17.8346 65.9255 20.2888C65.9255 20.2888 68.5108 23.8823 69.1645 28.8757L69.1705 28.8817Z" fill="#964738"/>
<path d="M69.9966 29.6028C69.3072 29.6028 68.9446 29.312 68.8614 29.2393L68.7307 29.1241L68.7069 28.9484C68.0769 24.1369 65.5749 20.61 65.5511 20.5797L65.4501 20.4343L65.4619 20.2585C65.6165 18.3133 65.7294 15.441 65.0043 12.9261L64.9687 12.811C64.6002 11.5505 64.2258 10.2477 64.2258 8.85995C64.2258 7.76312 64.3743 6.62387 64.6596 5.47249C65.3371 2.75162 66.5674 0.933662 68.2136 0.218599C68.3741 0.145881 68.5643 0.17012 68.701 0.279198C68.8377 0.388275 68.909 0.564011 68.8852 0.745807C68.6237 2.54558 68.9862 4.28476 69.3725 6.1209L69.4617 6.54509C69.8242 8.28427 70.8702 9.81135 71.8865 11.296L72.1302 11.6535C73.818 14.1381 74.8997 16.459 75.5297 18.9678C76.3142 22.1007 76.1596 24.458 75.0601 26.1669C74.8937 26.4214 74.7095 26.6638 74.5015 26.8759C72.3857 29.0999 70.9059 29.615 69.9966 29.615V29.6028ZM69.5984 28.5787C69.9966 28.7181 71.31 28.8514 73.8299 26.2033C73.9963 26.0275 74.1449 25.8397 74.2756 25.6336C75.2206 24.1611 75.3335 22.0523 74.6204 19.192C74.0201 16.7984 72.986 14.5744 71.3635 12.1868L71.1198 11.8353C70.056 10.278 68.9506 8.66604 68.5524 6.73901L68.4632 6.31482C68.1364 4.75743 67.7976 3.15763 67.8749 1.50329C66.603 2.46681 65.9196 4.26052 65.563 5.70277C65.2955 6.78142 65.1588 7.8419 65.1588 8.85995C65.1588 10.1083 65.5035 11.29 65.8661 12.5383L65.9017 12.6534C66.6565 15.247 66.5614 18.1437 66.4129 20.1555C66.9061 20.8827 68.9625 24.1429 69.6043 28.5727L69.5984 28.5787Z" fill="#964738"/>
<path d="M10.4818 41.2439C11.1177 41.462 11.2901 41.6378 11.3733 42.171C11.617 43.2012 11.9498 44.2132 12.3599 45.1828C15.6167 52.9454 22.3741 54.9513 30.0348 53.2424C30.9798 53.0485 31.895 52.7091 32.9113 52.6425C34.2188 52.5213 35.6095 52.6303 36.917 52.6364C38.8247 52.6425 40.6374 52.5334 42.67 52.8546C50.4317 54.8907 60.5292 54.9088 64.2733 46.3099C64.5586 45.6797 64.8023 45.0252 65.0044 44.3526C65.1054 44.0132 65.2005 43.6739 65.2896 43.3285C65.3253 43.0315 65.5571 42.771 65.8483 42.6134C65.979 42.5467 66.1157 42.474 66.3297 42.4134L66.8824 42.5043C67.34 42.8134 67.6372 43.2921 67.5064 43.8072C65.2777 56.642 53.3617 58.775 42.6343 55.9511C40.8751 55.5633 38.8307 55.6906 36.911 55.6784C35.5501 55.6784 34.0762 55.533 32.733 55.7269C26.1896 57.4964 18.933 57.5328 13.8694 52.2607C11.6407 49.9276 10.1906 46.928 9.44177 43.8011C9.34668 43.4133 9.26348 43.0255 9.1981 42.6316C9.0733 42.0922 9.15056 41.7226 9.7211 41.3348L10.4818 41.2439Z" fill="#964738"/>
<path d="M15.9674 39.135C16.6211 39.838 17.1857 40.6076 17.7325 41.3893C18.2555 42.1165 17.9999 43.1467 17.2154 43.5648C15.8426 44.5101 14.5232 45.7221 13.8338 47.2552L13.7803 47.3764L13.7387 47.4976C13.6495 47.7279 13.5901 47.9945 13.5307 48.2309L11.3079 48.0006C11.3376 47.6128 11.3971 47.1765 11.4981 46.8007C12.0984 44.4313 14.0774 42.4619 15.9079 41.256C15.3433 41.6074 15.2542 42.4679 15.5811 42.9103C15.0521 42.1165 14.541 41.3045 14.125 40.4318L15.9614 39.129L15.9674 39.135Z" fill="#964738"/>
<path d="M58.9423 41.9953C58.3064 42.7346 57.6111 43.4012 56.8979 44.0556C56.9217 44.0374 56.993 43.9587 57.0286 43.9162C57.4625 43.3951 57.3377 42.5346 56.7731 42.1649C56.7612 42.1528 56.7315 42.1346 56.7374 42.1407C56.8919 42.2437 57.0465 42.3467 57.1891 42.4498C60.6183 44.8555 62.9005 49.0368 61.5336 53.2969L59.3346 52.6727C60.2023 49.1701 58.0449 46.1342 55.2398 44.3283C54.5266 43.8072 54.479 42.6437 55.1447 42.068C55.8757 41.4196 56.6186 40.8015 57.4209 40.25L58.9305 41.9953H58.9423Z" fill="#964738"/>
<path d="M42.6165 6.79963L42.5986 14.326C42.5986 14.4532 42.6759 14.5623 42.7948 14.5987L50.8775 17.1983C51.0914 17.265 51.1449 17.5498 50.9726 17.6892L37.7312 28.7666C37.6302 28.8514 37.4875 28.8514 37.3806 28.7666L23.432 17.8649C23.2537 17.7256 23.3012 17.4407 23.5152 17.368L31.5028 14.7077C31.6216 14.6653 31.6989 14.5502 31.693 14.4229L31.3185 6.79963C31.3126 6.66025 31.4077 6.533 31.5444 6.5027C32.626 6.29666 37.2557 5.52706 42.3788 6.5027C42.5095 6.52694 42.6105 6.64813 42.6105 6.78751L42.6165 6.79963Z" fill="#964738"/>
<path d="M29.809 42.3407C31.9247 42.3286 33.8087 42.6376 35.7105 42.8315C39.8648 43.3587 44.1795 40.9833 48.1377 42.9285C53.9322 46.8007 47.2283 50.6124 43.0919 51.2487C38.3968 52.6182 23.1764 52.3758 24.157 45.0373C24.4423 42.9406 27.8418 42.1528 29.8149 42.3346L29.809 42.3407ZM47.5077 44.9586C47.7989 44.9343 48.102 44.7889 48.1555 44.4495C48.1198 43.7829 47.157 43.7769 46.6756 43.5527C44.9402 43.08 43.1632 43.1285 41.4278 43.4315C37.8619 44.0496 34.3258 44.092 30.7599 43.4557C29.0542 43.1527 27.3604 43.4133 25.8805 44.4738C25.2327 44.8252 25.3932 45.413 26.0648 45.5645C26.5105 45.7403 26.9562 45.6373 27.3604 45.5161C28.6025 45.1525 29.7911 45.304 30.9857 45.71C34.7121 46.8916 38.6821 47.7158 42.349 45.7221C43.4426 45.1282 44.655 44.8434 45.9268 44.9767C46.4557 44.9767 46.9847 45.007 47.5136 44.9646L47.5077 44.9586Z" fill="#964738"/>
<path d="M37.1131 51.9516C36.2632 51.9516 35.3718 51.9213 34.4565 51.8486C30.4627 51.5335 27.3307 50.5336 25.6369 49.0368C24.4126 47.9521 23.8955 46.6068 24.1035 45.0373C24.3947 42.8861 27.919 42.1225 29.809 42.2922C31.3898 42.2801 32.8519 42.4558 34.2663 42.6194C34.7418 42.674 35.2291 42.7346 35.7105 42.7831C37.3805 42.9952 39.0981 42.7346 40.7622 42.4801C43.2286 42.1044 45.7782 41.7165 48.1495 42.8861C49.9087 44.0617 50.6576 45.31 50.3782 46.6008C49.8612 49.0126 45.8139 50.879 43.086 51.2972C41.8439 51.6608 39.6687 51.9516 37.1072 51.9516H37.1131ZM29.2503 42.3649C27.3307 42.3649 24.4482 43.1527 24.1927 45.0494C23.9906 46.5826 24.4958 47.9036 25.6963 48.9641C27.3782 50.4488 30.4924 51.4426 34.4624 51.7517C38.1234 52.0425 41.4219 51.685 43.0741 51.2063C45.7782 50.7881 49.7839 48.952 50.295 46.5826C50.5625 45.3343 49.8255 44.1223 48.1079 42.9709C45.7604 41.8135 43.2286 42.2013 40.78 42.577C39.11 42.8315 37.3805 43.0921 35.7046 42.88C35.2232 42.8315 34.7358 42.7709 34.2604 42.7164C32.8459 42.5528 31.3898 42.377 29.809 42.3892C29.6366 42.371 29.4524 42.3649 29.2562 42.3649H29.2503ZM37.4043 46.9644C35.2469 46.9644 33.0718 46.4129 30.9619 45.7463C29.6069 45.2918 28.4658 45.2312 27.3663 45.5524C26.9681 45.6676 26.5046 45.7827 26.041 45.6009C25.6963 45.5221 25.4526 45.3221 25.4229 45.0676C25.3872 44.8252 25.5477 44.5889 25.8568 44.4253C27.2653 43.4193 28.9175 43.0739 30.7717 43.4012C34.2604 44.0253 37.7431 44.0193 41.4278 43.3769C43.4069 43.0315 45.1304 43.0739 46.6935 43.4981C46.8302 43.5648 47.0025 43.6072 47.1808 43.6557C47.6503 43.7829 48.1793 43.9223 48.209 44.4374C48.1555 44.7646 47.8999 44.9707 47.5196 45.001C47.1451 45.0313 46.7648 45.0252 46.3963 45.0191C46.2418 45.0191 46.0873 45.0191 45.9268 45.0191C44.7025 44.8919 43.5079 45.1464 42.3728 45.7585C40.7622 46.6311 39.0922 46.9644 37.4162 46.9644H37.4043ZM28.7867 45.2555C29.4761 45.2555 30.2012 45.3888 30.9976 45.6554C34.718 46.8371 38.6702 47.6552 42.3252 45.6736C43.4782 45.0494 44.6906 44.7949 45.9268 44.9222C46.0754 44.9222 46.2358 44.9222 46.3904 44.9222C46.7588 44.9222 47.1333 44.9343 47.5017 44.904C47.6265 44.8919 48.0426 44.8313 48.1079 44.4313C48.0842 43.995 47.6087 43.8678 47.1511 43.7466C46.9669 43.6981 46.7945 43.6496 46.6578 43.583C45.1185 43.1648 43.4069 43.1224 41.4397 43.4618C37.749 44.1041 34.2544 44.1102 30.7539 43.486C28.9294 43.1588 27.295 43.4981 25.9043 44.4919C25.6309 44.6434 25.4883 44.8434 25.518 45.0434C25.5477 45.2555 25.7617 45.4312 26.0707 45.4979C26.5164 45.6736 26.9444 45.5706 27.3425 45.4494C27.8121 45.31 28.2875 45.2434 28.7867 45.2434V45.2555Z" fill="#964738"/>
<path d="M67.4291 44.0677C65.5927 44.2071 64.3744 42.5407 63.9821 40.9772L63.9524 40.856L63.9346 40.7954C63.9346 40.7954 63.9346 40.7954 63.9465 40.8378C64.2674 42.0559 65.9374 42.1892 66.4485 41.0681C65.7591 42.4498 65.0281 43.8375 63.7147 44.7586C62.2824 45.7342 60.5945 45.104 59.9408 43.5769C59.5545 42.7285 59.4237 41.8074 59.3524 40.9469C59.2751 39.9289 59.287 38.9472 59.3346 37.9352C59.2573 39.3471 61.1829 40.0198 61.9317 38.6684C62.009 38.5109 61.9793 38.5715 61.9852 38.5593V38.5715L61.9733 38.5957C61.3196 39.9834 60.2914 42.4437 58.4906 42.5891C56.0361 42.5891 56.0004 39.4198 55.9054 37.6382C55.9054 37.5534 55.8875 37.2686 55.8756 37.1898C55.8756 37.1898 55.8756 37.1777 55.8756 37.2201C55.8875 37.2807 55.9054 37.3413 55.9291 37.3958C56.2144 38.1957 57.2545 38.5351 57.9558 38.0443C58.0092 38.0079 58.0687 37.9534 58.0687 37.9594L58.1043 37.9291L58.1162 37.917H58.1103L58.039 38.0079C57.0643 39.1835 56.1193 40.4318 55.109 41.5832C54.5979 42.1407 54.1105 42.7528 53.433 43.183L53.3379 43.2375C53.2844 43.2678 53.2072 43.2981 53.1477 43.3224C52.5772 43.5648 51.864 43.4133 51.4421 42.9164C51.0617 42.5104 50.8893 41.7892 50.8299 41.3408C50.7586 40.8378 50.7229 40.2743 50.6516 39.7834C50.6516 39.7713 50.6516 39.7653 50.6516 39.7713C50.6516 39.7713 50.6516 39.7895 50.7229 39.947C50.7348 39.9713 50.7526 39.9955 50.7645 40.0258C51.1211 40.6257 51.9948 40.8197 52.5653 40.4258L52.6188 40.3834C52.6307 40.3773 52.6485 40.3591 52.6366 40.3652C52.5891 40.4076 52.1493 40.8984 52.0839 40.9712C51.3588 41.7468 50.4674 42.5649 49.3322 42.7649C48.0128 43.0315 46.5389 42.1044 45.9149 40.9712C44.97 39.2562 44.9343 37.3898 44.5242 35.6143L44.5123 35.5415C44.5302 35.6203 44.5599 35.7173 44.6074 35.8082C45.0234 36.7596 46.3666 36.8383 46.9015 36.0081L46.8777 36.0445C46.848 36.0809 46.7707 36.2021 46.741 36.2445C45.7188 37.6807 44.6966 39.1411 43.3415 40.3106C42.1529 41.3348 40.8097 41.2923 39.8529 39.9955C39.4131 39.3653 39.2526 38.7411 39.0922 38.0503C39.0922 38.0443 39.0387 37.82 39.0387 37.814C39.0506 37.8564 39.0625 37.8988 39.0862 37.9352C39.532 38.9532 41.0118 38.9775 41.4813 37.9534C41.4873 37.9291 41.517 37.8746 41.5229 37.8503C41.5229 37.8443 41.5229 37.8382 41.5229 37.8503C41.511 37.8867 41.4932 37.9897 41.4694 38.0867C41.3149 38.7957 41.1604 39.541 40.6255 40.1591C40.156 40.7469 39.1516 41.0318 38.4444 40.65C37.7847 40.3167 37.3508 39.7289 36.9407 39.1956C36.4059 38.4684 35.9601 37.7534 35.5203 37.0323C35.2291 36.5475 34.6051 35.4991 34.3733 35.1173C34.9557 35.79 36.0017 35.7173 36.4772 34.9295C36.4891 34.8992 36.5426 34.8022 36.5426 34.7901C36.5247 34.8265 36.4712 35.0507 36.4534 35.0931C36.2038 36.0506 35.9839 36.9777 35.6154 37.9231C35.3004 38.7351 34.7774 39.6925 33.7374 39.7653C32.2516 39.7834 30.6588 38.3351 29.7317 37.2807C30.4033 38.0927 31.8593 37.6988 31.9366 36.499C31.8177 37.8806 30.6945 39.438 29.5118 40.0501L29.3811 40.1046L29.2503 40.1591L29.1849 40.1834C29.0661 40.2197 28.9294 40.25 28.8046 40.2682C28.3172 40.3349 27.8715 40.141 27.5624 39.9531C26.1539 38.9714 25.2327 37.5413 24.0916 36.3475L24.0263 36.2869C24.0084 36.2687 23.9965 36.2566 24.0084 36.2687C24.0084 36.2687 24.0263 36.2808 24.0679 36.3111L24.1035 36.3354L24.1689 36.3717C24.7989 36.6868 25.6369 36.3172 25.8568 35.6324C25.8865 35.5415 25.9102 35.4385 25.9162 35.3416C25.9162 35.281 25.9162 35.2991 25.9162 35.3113C25.9459 35.6506 26.0232 36.0324 26.0885 36.4445C26.4808 38.8381 27.087 43.2739 23.6875 43.589C20.1276 43.7102 17.6255 39.3108 15.6761 36.9717C15.9139 37.0868 16.2348 37.0747 16.4903 36.9171L16.8291 36.5959C16.8529 36.5717 16.8707 36.5293 16.8766 36.505C16.6033 37.5534 16.4309 38.7957 16.1338 39.8561C15.8544 40.9227 15.2363 42.5164 13.8278 42.2498C12.5263 41.9347 11.9498 40.6197 11.4327 39.5471C11.2485 39.135 11.094 38.7351 10.9454 38.2927L11.1474 38.6563C11.3139 39.1047 12.4312 39.0623 12.5263 38.8199C12.7224 38.6684 12.7402 38.5957 12.7699 38.5654C12.8115 38.4987 12.8056 38.5048 12.8234 38.4684C12.8294 38.4563 12.8234 38.4745 12.8175 38.4987L12.764 38.6866C12.4133 39.9289 12.0389 41.159 11.0345 42.0801C9.81023 43.2133 7.91437 42.8376 6.95752 41.5772C5.51333 39.7228 5.22806 36.8505 5.12703 34.6144C5.02599 27.494 7.61721 20.4464 11.9617 14.9138C15.9614 9.7326 22.1126 6.90265 28.2578 5.4301C34.4327 3.87878 40.7622 4.07269 46.8777 5.73915C55.4299 7.79951 63.5423 12.9564 67.9997 20.8524C70.0085 24.3793 70.894 28.5485 70.9059 32.5843C70.9059 32.6813 70.9178 32.9116 70.9118 33.0085C70.8821 33.972 70.8286 35.0083 70.7514 35.9597C70.6503 37.2201 70.5136 38.4806 70.2759 39.7713C69.9431 41.3651 69.4617 43.8738 67.4351 44.0859L67.4291 44.0677ZM67.233 41.1833C67.0785 41.1954 66.9418 41.2439 66.8348 41.3287C66.7932 41.3651 66.817 41.3529 66.8408 41.3045C67.1498 40.7227 67.3281 39.947 67.4589 39.2138C67.8095 37.2262 67.9403 35.0749 68.0056 33.0328C68.0175 32.8025 67.9878 32.4389 67.9819 32.2086C67.9105 28.7242 67.126 25.3428 65.4085 22.331C62.5379 17.3438 57.8309 13.4534 52.6782 11.0961C49.5046 9.672 46.0991 8.72666 42.6818 8.12068C33.6958 6.39968 20.71 9.22357 14.6896 16.5863C10.2916 21.9432 7.48646 29.2514 7.92625 36.2808C8.04512 37.5352 8.21152 38.9411 8.87121 39.9773C9.03168 40.1713 9.07328 40.2319 9.23969 40.2925C9.37638 40.3167 9.37044 40.3409 9.54279 40.2319C10.2679 39.5956 10.5294 38.4624 10.9038 37.5716L10.9394 37.4989C10.9573 37.4686 10.9691 37.4383 11.0108 37.3777C11.0464 37.3353 11.0821 37.2444 11.2901 37.0807C11.403 36.8262 12.5381 36.7838 12.7224 37.2504L12.9244 37.614C13.1562 38.3048 13.4712 39.0441 13.8159 39.6077C13.9348 39.7834 14.1309 40.0804 14.2617 40.1591C14.2617 40.1591 14.2617 40.1591 14.2022 40.141C14.2022 40.141 14.0774 40.1167 14.0061 40.141C13.9288 40.141 13.8456 40.1894 13.804 40.2016C13.7803 40.2137 13.7565 40.2379 13.7446 40.2379C13.7327 40.2379 13.7268 40.25 13.7149 40.2561C13.703 40.2682 13.703 40.2682 13.703 40.2682C13.703 40.2682 13.7149 40.244 13.7268 40.2319L13.7624 40.1652C14.1785 39.2865 14.3924 37.9352 14.6004 36.9353C14.6955 36.499 14.7728 36.0263 14.9451 35.5961C14.9986 35.487 15.1175 35.281 15.1947 35.1719L15.4087 35.0507C15.8188 34.8022 16.312 34.8446 16.6984 35.0689C17.0787 35.287 17.358 35.5779 17.6195 35.8627C18.3803 36.6929 19.0756 37.5716 19.8066 38.3775C20.7278 39.3653 22.2611 41.0742 23.5805 40.9712C23.7469 40.7894 23.7945 40.2622 23.8183 39.9046C23.842 39.2926 23.7885 38.6078 23.6934 37.9109C23.6162 37.408 23.533 36.8141 23.4379 36.299C23.3963 35.9354 23.3012 35.6021 23.319 35.1901C23.3428 34.1902 24.3591 33.5357 25.2446 33.972C25.3456 34.0205 25.5061 34.1235 25.5774 34.1841C26.0648 34.5962 26.4689 35.1173 26.879 35.5779C27.5506 36.3293 28.1508 37.111 28.8997 37.6807C28.9175 37.6928 28.9294 37.6867 28.8224 37.6564C28.763 37.6382 28.6798 37.614 28.4955 37.6261H28.4658C28.4658 37.6261 28.4658 37.6261 28.4539 37.6261H28.442H28.4242C28.4123 37.6261 28.4004 37.6261 28.3885 37.6322C28.3291 37.6443 28.3767 37.6443 28.448 37.5837C28.7689 37.3413 29.1968 36.7474 29.2978 36.3354C29.3157 36.0506 29.4761 35.6082 29.7376 35.39C30.3141 34.8325 31.271 34.9477 31.7345 35.5658C31.7702 35.6143 31.9247 35.7718 31.9723 35.8203C32.4596 36.3051 33.0836 36.8626 33.7017 37.0626C33.6185 37.0626 33.5175 37.0626 33.4343 37.0807C33.1906 37.1353 33.0599 37.2201 32.941 37.3413C32.941 37.3413 32.9648 37.3049 32.9885 37.2625C33.4462 36.299 33.6542 35.1234 33.9573 34.075C33.9989 33.9175 34.0702 33.7054 34.1653 33.5478C34.6645 32.7055 35.7105 32.6267 36.3405 33.3176C36.4415 33.4266 36.5485 33.5903 36.6317 33.7175C36.9289 34.1962 37.4637 35.087 37.7609 35.584C38.3493 36.499 38.8901 37.4686 39.6211 38.1957C39.6389 38.2079 39.6092 38.1897 39.6092 38.1897C39.6092 38.1897 39.5795 38.1715 39.5617 38.1655C39.4309 38.1049 39.2586 38.0685 39.1159 38.0806C38.9555 38.0746 38.6524 38.2321 38.6048 38.3169C38.5692 38.3594 38.5751 38.3594 38.587 38.3351C38.8485 37.7716 38.7772 36.9717 39.2229 36.4445C39.9599 35.5658 41.3387 35.9354 41.6061 37.0262C41.725 37.4443 41.7963 38.014 42.0162 38.3594C42.04 38.3897 42.0281 38.3594 41.933 38.3109C41.9152 38.2988 41.8855 38.2866 41.8617 38.2806C41.725 38.2442 41.511 38.2442 41.4041 38.2927C41.3981 38.2988 41.41 38.2927 41.4219 38.2806C41.9152 37.9412 42.3015 37.4625 42.7116 36.9898C43.1989 36.402 43.6743 35.7657 44.132 35.1173C44.1736 35.0446 44.5123 34.578 44.5539 34.5053C44.7382 34.1902 45.065 33.9114 45.4335 33.8266C46.2418 33.6084 47.056 34.1841 47.1749 34.9961C47.4423 36.1899 47.6087 37.6079 47.9178 38.6927C48.102 39.2683 48.2981 39.8683 48.8508 39.9773C48.9103 39.9773 49.1183 39.8804 49.3382 39.7107C49.6888 39.4562 50.1346 38.9351 50.4555 38.5836C50.5981 38.42 50.8418 38.1715 51.0676 38.0261C51.7214 37.5837 52.6842 37.82 53.0764 38.5048C53.3379 38.9593 53.3498 39.2865 53.4092 39.7228C53.4449 40.1288 53.5043 40.856 53.5994 41.2075C53.5994 41.2075 53.5994 41.1893 53.5697 41.1469C53.5519 41.1166 53.5459 41.1105 53.5103 41.056C53.1893 40.6439 52.5831 40.4864 52.1255 40.6682C52.0899 40.6803 52.0364 40.7045 52.0007 40.7288C51.9829 40.7409 52.0364 40.7045 52.078 40.6621C53.2309 39.5532 54.265 38.1352 55.2992 36.8747C55.5428 36.5778 55.9054 36.099 56.1847 35.8324C56.256 35.7718 56.2738 35.7476 56.3868 35.6688C56.4581 35.6264 56.363 35.6688 56.571 35.5658C56.8028 35.4567 57.0702 35.4022 57.3198 35.4325C57.9082 35.4931 58.4015 35.9475 58.5441 36.4929C58.6392 36.8262 58.6333 37.1656 58.657 37.4928C58.6689 38.1049 58.7343 38.9229 58.8353 39.4804C58.8829 39.7047 58.9245 39.8986 58.9958 40.0319C58.9958 40.0319 58.9899 40.0198 58.972 39.9955C58.7581 39.7228 58.2232 39.6622 57.9914 39.8198C57.9617 39.838 58.0746 39.7531 58.1697 39.6319C58.6333 39.0441 59.0731 38.1594 59.388 37.4261C59.6258 36.7474 60.5291 36.3475 61.1948 36.6323C61.6999 36.7838 62.1457 37.4504 62.116 37.9715V38.0988V38.1412C62.0803 38.9835 62.0684 39.8683 62.1338 40.6985C62.1992 41.3045 62.2824 42.0377 62.5201 42.4437C62.4428 42.3589 62.217 42.3104 62.116 42.3528C62.116 42.3528 62.1338 42.3528 62.1694 42.3165C62.9658 41.6741 63.4651 40.5955 63.9405 39.6683C64.517 38.6381 66.1157 38.729 66.5733 39.844C66.6506 39.9955 66.6625 40.1591 66.716 40.3167C66.8408 40.6864 67.0191 41.0499 67.2092 41.1711L67.233 41.1833Z" fill="#964738"/>
</g>
<defs>
<clipPath id="clip0_1020_524">
<rect width="75.3176" height="56.8778" fill="white" transform="translate(0.705322 0.170135)"/>
</clipPath>
</defs>
</svg>
