<svg width="15" height="113" viewBox="0 0 15 113" fill="none" xmlns="http://www.w3.org/2000/svg">
<circle cx="7.5" cy="7.5" r="6.5" stroke="black" stroke-width="2"/>
<circle cx="7.5" cy="105.5" r="6.5" fill="#349F91" stroke="black" stroke-width="2"/>
<path d="M6.64645 92.3536C6.84171 92.5488 7.15829 92.5488 7.35355 92.3536L10.5355 89.1716C10.7308 88.9763 10.7308 88.6597 10.5355 88.4645C10.3403 88.2692 10.0237 88.2692 9.82843 88.4645L7 91.2929L4.17157 88.4645C3.97631 88.2692 3.65973 88.2692 3.46447 88.4645C3.2692 88.6597 3.2692 88.9763 3.46447 89.1716L6.64645 92.3536ZM7.5 23C7.5 22.7239 7.27614 22.5 7 22.5C6.72386 22.5 6.5 22.7239 6.5 23H7.5ZM7.5 92V89.5357H6.5V92H7.5ZM7.5 84.6071L7.5 79.6786H6.5V84.6071H7.5ZM7.5 74.75L7.5 69.8214H6.5L6.5 74.75H7.5ZM7.5 64.8929L7.5 59.9643H6.5L6.5 64.8929H7.5ZM7.5 55.0357L7.5 50.1071H6.5L6.5 55.0357H7.5ZM7.5 45.1786L7.5 40.25H6.5L6.5 45.1786H7.5ZM7.5 35.3214L7.5 30.3929H6.5L6.5 35.3214H7.5ZM7.5 25.4643V23H6.5V25.4643H7.5Z" fill="black"/>
</svg>
