<?xml version="1.0" encoding="UTF-8"?>
<svg id="Capa_1" data-name="Capa 1" xmlns="http://www.w3.org/2000/svg" viewBox="0 0 12.33 118.13">
  <defs>
    <style>
      .cls-1, .cls-2, .cls-3, .cls-4 {
        fill: none;
        stroke-linejoin: round;
      }

      .cls-1, .cls-3, .cls-4 {
        stroke: #000;
      }

      .cls-1, .cls-4 {
        stroke-linecap: square;
      }

      .cls-2 {
        stroke: #349f91;
      }

      .cls-2, .cls-3 {
        stroke-linecap: round;
      }

      .cls-4 {
        stroke-dasharray: 0 0 2.03 3.56;
      }
    </style>
  </defs>
  <path class="cls-3" d="m6.17,8.29c1.17,0,2.12-.95,2.12-2.12s-.95-2.12-2.12-2.12-2.12.95-2.12,2.12.95,2.12,2.12,2.12Z"/>
  <path class="cls-3" d="m6.17,14.67c2.83-2.83,5.67-5.37,5.67-8.5S9.3.5,6.17.5.5,3.04.5,6.17s2.83,5.67,5.67,8.5Z"/>
  <path class="cls-2" d="m6.17,111.25c1.17,0,2.12-.95,2.12-2.12s-.95-2.12-2.12-2.12-2.12.95-2.12,2.12.95,2.12,2.12,2.12Z"/>
  <path class="cls-2" d="m6.17,117.63c2.83-2.83,5.67-5.37,5.67-8.5s-2.54-5.67-5.67-5.67-5.67,2.54-5.67,5.67,2.83,5.67,5.67,8.5Z"/>
  <g>
    <line class="cls-1" x1="6.17" y1="17.31" x2="6.17" y2="18.31"/>
    <line class="cls-4" x1="6.17" y1="21.86" x2="6.17" y2="92.72"/>
    <line class="cls-1" x1="6.17" y1="94.5" x2="6.17" y2="95.5"/>
  </g>
  <polyline class="cls-3" points="3.05 96.22 6.17 99.33 9.28 96.21"/>
</svg>