<svg width="80" height="78" viewBox="0 0 80 78" fill="none" xmlns="http://www.w3.org/2000/svg">
<path fill-rule="evenodd" clip-rule="evenodd" d="M71.0141 22.3026C70.7939 22.3152 70.5721 22.3215 70.3489 22.3215C63.8184 22.3215 58.5245 16.8685 58.5245 10.1419C58.5245 9.30476 58.6065 8.48739 58.7626 7.6978C52.8125 3.47765 45.6022 1.00708 37.8318 1.00708C17.4242 1.00708 0.880554 18.0478 0.880554 39.0686C0.880554 60.0894 17.4242 77.1301 37.8318 77.1301C58.2394 77.1301 74.783 60.0894 74.783 39.0686C74.783 33.0518 73.4276 27.361 71.0141 22.3026Z" fill="#E47120"/>
<g clip-path="url(#clip0_448_5857)">
<path d="M70.3113 11.0438C71.6491 11.0438 72.7335 9.92675 72.7335 8.54883C72.7335 7.17091 71.6491 6.05388 70.3113 6.05388C68.9736 6.05388 67.8892 7.17091 67.8892 8.54883C67.8892 9.92675 68.9736 11.0438 70.3113 11.0438Z" stroke="#E47120" stroke-width="2" stroke-linecap="round" stroke-linejoin="round"/>
<path d="M70.3113 18.5286C73.5409 15.202 76.7704 12.2233 76.7704 8.54883C76.7704 4.87437 73.8786 1.89563 70.3113 1.89563C66.744 1.89563 63.8522 4.87437 63.8522 8.54883C63.8522 12.2233 67.0818 15.202 70.3113 18.5286Z" stroke="#E47120" stroke-width="2" stroke-linecap="round" stroke-linejoin="round"/>
</g>
<path d="M15.2097 40.0896C15.2097 40.0896 10.8357 37.4801 11.1448 34.5324C11.2549 33.4877 11.5936 32.469 11.979 31.498C12.3643 30.527 12.7877 29.6513 13.2662 28.7627C13.6599 28.0301 14.1215 27.3365 14.4941 26.5953C14.6592 26.2702 14.8117 25.9407 14.9683 25.6113C15.108 25.3165 15.2562 25.0347 15.3494 24.7226C15.4426 24.4105 15.5188 24.0724 15.5738 23.7429C15.6543 23.2704 15.7008 22.7936 15.7347 22.3211C15.7686 21.8746 15.8236 21.4325 15.8406 20.9816C15.8575 20.5655 15.849 20.1103 15.866 19.6855C15.866 19.6725 15.8744 19.6595 15.8829 19.6595C16.2216 19.6075 16.5223 19.8936 16.7255 20.132C17.4411 20.973 17.8899 22.0827 17.9916 23.1837C18.0635 23.9553 18.0466 24.7703 17.9746 25.5419C17.9153 26.1748 17.7417 26.786 17.6232 27.4102C17.4369 28.3552 17.2633 29.3045 17.1024 30.2539C17.0389 30.6267 16.9669 31.0038 16.9372 31.3853C16.8737 32.1569 17.1998 32.8678 17.6147 32.9501C17.6147 32.9501 15.8829 35.6898 15.2054 40.0896H15.2097Z" fill="white"/>
<path d="M15.4595 40.6359L15.0403 40.3845C14.854 40.2717 10.4843 37.6232 10.8145 34.4977C10.9373 33.3273 11.3396 32.2133 11.6698 31.3723C12.0255 30.4793 12.4489 29.5733 12.9698 28.6023C13.1476 28.2729 13.3381 27.9478 13.5244 27.6357C13.7531 27.2499 13.9902 26.8467 14.1934 26.4436C14.3332 26.1705 14.4644 25.8887 14.5957 25.6113L14.7354 25.3209C14.8498 25.0824 14.9556 24.8614 15.0276 24.6273C15.1165 24.3412 15.1843 24.0334 15.2435 23.691C15.3282 23.1924 15.3706 22.6853 15.4002 22.2995C15.4129 22.1304 15.4298 21.9657 15.4425 21.801C15.468 21.5192 15.4934 21.2504 15.5061 20.973C15.5145 20.7779 15.5145 20.5699 15.5188 20.3661C15.5188 20.1364 15.523 19.9023 15.5315 19.6769C15.5399 19.4992 15.667 19.3561 15.8321 19.3301C16.3995 19.2391 16.8356 19.7506 16.9753 19.9153C17.7248 20.7909 18.216 21.9744 18.3218 23.1621C18.3896 23.9034 18.3853 24.7443 18.3049 25.5853C18.2625 26.0448 18.1652 26.4869 18.0678 26.9117C18.0254 27.1025 17.9831 27.2932 17.945 27.4839C17.7375 28.5416 17.5681 29.4693 17.4284 30.3189L17.3945 30.5053C17.3437 30.8088 17.2887 31.1165 17.2633 31.42C17.204 32.1049 17.4961 32.5861 17.674 32.6207L18.1609 32.7161L17.8942 33.1409C17.8772 33.1669 16.1878 35.8805 15.5315 40.146L15.4552 40.6402L15.4595 40.6359ZM16.1878 20.0844C16.1878 20.1797 16.1878 20.2751 16.1878 20.3705C16.1878 20.5829 16.1835 20.7953 16.1751 20.999C16.1624 21.2938 16.137 21.5842 16.1116 21.866C16.0946 22.0264 16.0819 22.1911 16.0692 22.3515C16.0396 22.7546 15.993 23.2791 15.9041 23.808C15.8406 24.1808 15.7643 24.5146 15.667 24.831C15.5823 25.1171 15.4552 25.3729 15.3367 25.6243L15.2012 25.9104C15.0699 26.1878 14.9344 26.4739 14.7905 26.7557C14.5745 27.1805 14.3332 27.5923 14.1003 27.9868C13.9182 28.2946 13.7319 28.611 13.5625 28.9275C13.0544 29.8768 12.6395 30.7611 12.2923 31.6281C11.9747 32.4257 11.5979 33.4834 11.4793 34.5714C11.2464 36.7519 13.9182 38.8109 14.9641 39.5305C15.5526 36.1883 16.7043 33.8909 17.1574 33.0846C16.7806 32.7508 16.5477 32.0789 16.6112 31.3636C16.6408 31.0342 16.6959 30.7047 16.7509 30.3883L16.7806 30.2019C16.9245 29.3436 17.0939 28.4116 17.3014 27.3452C17.3395 27.1458 17.3818 26.9508 17.4284 26.7557C17.5216 26.3309 17.6105 25.9277 17.6528 25.5116C17.729 24.714 17.7333 23.9207 17.6698 23.2185C17.5724 22.1694 17.1405 21.1291 16.4842 20.3575C16.3783 20.2317 16.2809 20.1407 16.1962 20.08L16.1878 20.0844Z" fill="white"/>
<path d="M59.5759 39.162C59.5759 39.162 60.6345 40.12 63.1369 37.4801C63.2682 37.3414 63.391 37.1853 63.4968 37.0206C64.4029 35.6075 64.1701 33.6915 63.7847 32.1439C63.3147 30.2583 62.4933 28.6197 61.4136 27.0245C60.626 25.8584 59.758 24.662 59.4616 23.2488C59.1652 21.8356 58.8349 20.4355 59.0466 18.979C59.0466 18.966 59.0382 18.9616 59.0255 18.966C57.6875 19.5512 57.0184 21.1464 56.6839 22.4945C56.4934 23.2575 56.3876 24.0508 56.3833 24.8354C56.3833 25.8064 56.6585 26.7254 56.9253 27.6487C57.4165 29.3479 57.4038 31.2596 57.264 33.0152C57.264 33.0152 59.1059 35.5858 59.5717 39.1577L59.5759 39.162Z" fill="white"/>
<path d="M60.1645 39.6778C59.6733 39.6778 59.415 39.4697 59.3557 39.4177L59.2626 39.3354L59.2456 39.2097C58.7968 35.7678 57.0142 33.2449 56.9973 33.2232L56.9253 33.1192L56.9338 32.9935C57.0438 31.602 57.1243 29.5473 56.6077 27.7483L56.5823 27.666C56.3198 26.7643 56.053 25.8323 56.053 24.8396C56.053 24.055 56.1589 23.2401 56.3621 22.4165C56.8448 20.4701 57.7213 19.1697 58.8942 18.6582C59.0085 18.6061 59.144 18.6235 59.2414 18.7015C59.3388 18.7795 59.3896 18.9052 59.3727 19.0353C59.1864 20.3227 59.4447 21.5668 59.7199 22.8803L59.7834 23.1837C60.0417 24.4278 60.7869 25.5202 61.511 26.5823L61.6846 26.838C62.8871 28.6153 63.6577 30.2755 64.1065 32.0702C64.6655 34.3113 64.5554 35.9975 63.772 37.22C63.6535 37.402 63.5222 37.5754 63.374 37.7271C61.8666 39.318 60.8123 39.6865 60.1645 39.6865V39.6778ZM59.8808 38.9452C60.1645 39.0449 61.1002 39.1403 62.8956 37.246C63.0141 37.1203 63.12 36.9859 63.2131 36.8385C63.8864 35.7851 63.9668 34.2766 63.4587 32.2306C63.0311 30.5183 62.2943 28.9274 61.1383 27.2195L60.9647 26.9681C60.2068 25.854 59.4193 24.7009 59.1356 23.3224L59.072 23.019C58.8392 21.905 58.5978 20.7606 58.6529 19.5771C57.7467 20.2664 57.2598 21.5495 57.0057 22.5812C56.8152 23.3528 56.7178 24.1114 56.7178 24.8396C56.7178 25.7326 56.9634 26.5779 57.2217 27.4709L57.2471 27.5533C57.7848 29.4086 57.7171 31.4806 57.6112 32.9198C57.9627 33.44 59.4277 35.7721 59.885 38.9409L59.8808 38.9452Z" fill="white"/>
<path d="M17.7629 48.005C18.216 48.1611 18.3388 48.2868 18.398 48.6682C18.5716 49.4052 18.8088 50.1291 19.1009 50.8227C21.4213 56.3756 26.2356 57.8104 31.6935 56.588C32.3668 56.4493 33.0188 56.2065 33.7429 56.1589C34.6744 56.0722 35.6652 56.1502 36.5968 56.1545C37.9559 56.1589 39.2474 56.0808 40.6955 56.3106C46.2254 57.7671 53.4193 57.7801 56.0869 51.6289C56.2901 51.1781 56.4638 50.71 56.6077 50.2288C56.6797 49.986 56.7474 49.7433 56.811 49.4962C56.8364 49.2838 57.0015 49.0974 57.209 48.9847C57.3021 48.937 57.3995 48.885 57.5519 48.8416L57.9457 48.9067C58.2718 49.1277 58.4835 49.4702 58.3903 49.8386C56.8025 59.0199 48.3129 60.5457 40.6701 58.5257C39.4167 58.2483 37.9602 58.3393 36.5925 58.3306C35.6229 58.3306 34.5728 58.2266 33.6159 58.3653C28.954 59.6311 23.784 59.6571 20.1764 55.8858C18.5886 54.2168 17.5554 52.0711 17.0219 49.8343C16.9542 49.5569 16.8949 49.2795 16.8483 48.9977C16.7594 48.6119 16.8144 48.3475 17.2209 48.07L17.7629 48.005Z" fill="white"/>
<path d="M21.6711 46.4965C22.1369 46.9994 22.5391 47.5499 22.9287 48.1091C23.3013 48.6293 23.1192 49.3662 22.5603 49.6653C21.5822 50.3415 20.6422 51.2085 20.151 52.3052L20.1129 52.3919L20.0833 52.4786C20.0198 52.6433 19.9774 52.8341 19.9351 53.0031L18.3515 52.8384C18.3726 52.561 18.415 52.2489 18.487 51.9801C18.9146 50.2852 20.3246 48.8764 21.6288 48.0137C21.2265 48.2651 21.163 48.8807 21.3959 49.1971C21.019 48.6293 20.6549 48.0484 20.3585 47.4242L21.6669 46.4922L21.6711 46.4965Z" fill="white"/>
<path d="M52.2888 48.5426C51.8357 49.0715 51.3403 49.5483 50.8322 50.0165C50.8492 50.0035 50.9 49.9471 50.9254 49.9168C51.2345 49.544 51.1456 48.9284 50.7433 48.664C50.7348 48.6553 50.7137 48.6423 50.7179 48.6467C50.828 48.7204 50.9381 48.794 51.0397 48.8677C53.4828 50.5887 55.1088 53.5797 54.1349 56.6271L52.5683 56.1806C53.1865 53.6751 51.6494 51.5033 49.6509 50.2115C49.1428 49.8387 49.1089 49.0065 49.5831 48.5946C50.1039 48.1308 50.6332 47.6887 51.2048 47.2942L52.2803 48.5426H52.2888Z" fill="white"/>
<path d="M40.6574 23.3658L40.6447 28.7496C40.6447 28.8407 40.6997 28.9187 40.7844 28.9447L46.5429 30.8043C46.6954 30.852 46.7335 31.0558 46.6107 31.1555L37.1768 39.0796C37.1049 39.1403 37.0032 39.1403 36.927 39.0796L26.9893 31.2812C26.8623 31.1815 26.8961 30.9777 27.0486 30.9257L32.7394 29.0227C32.824 28.9924 32.8791 28.91 32.8749 28.819L32.6081 23.3658C32.6039 23.2661 32.6716 23.175 32.769 23.1533C33.5396 23.006 36.8381 22.4554 40.488 23.1533C40.5812 23.1707 40.6531 23.2574 40.6531 23.3571L40.6574 23.3658Z" fill="white"/>
<path d="M31.5326 48.7896C33.04 48.7809 34.3822 49.002 35.7372 49.1407C38.6969 49.5178 41.771 47.8186 44.591 49.2101C48.7193 51.98 43.9431 54.7066 40.9961 55.1618C37.6511 56.1415 26.8072 55.9681 27.5059 50.7186C27.7091 49.2187 30.1311 48.6552 31.5368 48.7852L31.5326 48.7896ZM44.1421 50.6622C44.3496 50.6449 44.5656 50.5409 44.6037 50.2981C44.5783 49.8213 43.8923 49.8169 43.5493 49.6565C42.3129 49.3184 41.0469 49.3531 39.8105 49.5699C37.27 50.012 34.7506 50.0424 32.2101 49.5872C30.9949 49.3705 29.7881 49.5568 28.7338 50.3154C28.2722 50.5669 28.3866 50.9873 28.865 51.0957C29.1826 51.2214 29.5002 51.1477 29.7881 51.061C30.6731 50.801 31.5199 50.9093 32.371 51.1998C35.0258 52.0451 37.8543 52.6346 40.4668 51.2084C41.2459 50.7836 42.1097 50.5799 43.0158 50.6752C43.3927 50.6752 43.7695 50.6969 44.1464 50.6666L44.1421 50.6622Z" fill="white"/>
<path d="M36.7365 55.6647C36.131 55.6647 35.4958 55.643 34.8438 55.591C31.9984 55.3656 29.7669 54.6503 28.5602 53.5796C27.6879 52.8037 27.3195 51.8413 27.4677 50.7186C27.6752 49.1797 30.1861 48.6336 31.5326 48.7549C32.6589 48.7463 33.7005 48.872 34.7083 48.989C35.047 49.028 35.3942 49.0714 35.7372 49.1061C36.927 49.2578 38.1507 49.0714 39.3363 48.8893C41.0935 48.6206 42.91 48.3431 44.5994 49.1797C45.8528 50.0207 46.3863 50.9137 46.1873 51.837C45.8189 53.5623 42.9354 54.8974 40.9919 55.1965C40.1069 55.4566 38.5572 55.6647 36.7322 55.6647H36.7365ZM31.1346 48.8069C29.7669 48.8069 27.7133 49.3705 27.5313 50.7273C27.3873 51.824 27.7472 52.769 28.6025 53.5276C29.8008 54.5896 32.0195 55.3006 34.848 55.5216C37.4563 55.7297 39.8063 55.4739 40.9834 55.1315C42.91 54.8324 45.7639 53.5189 46.128 51.824C46.3185 50.931 45.7935 50.0641 44.5698 49.2404C42.8973 48.4125 41.0935 48.6899 39.349 48.9587C38.1592 49.1407 36.927 49.3271 35.733 49.1754C35.39 49.1407 35.0428 49.0974 34.704 49.0584C33.6963 48.9413 32.6589 48.8156 31.5326 48.8243C31.4098 48.8113 31.2786 48.8069 31.1388 48.8069H31.1346ZM36.9439 52.0971C35.4069 52.0971 33.8572 51.7026 32.354 51.2258C31.3886 50.9007 30.5757 50.8573 29.7923 51.0871C29.5086 51.1694 29.1784 51.2518 28.8481 51.1218C28.6025 51.0654 28.4289 50.9224 28.4077 50.7403C28.3823 50.5669 28.4967 50.3978 28.7168 50.2808C29.7204 49.5612 30.8975 49.3141 32.2186 49.5482C34.704 49.9947 37.1853 49.9904 39.8105 49.5309C41.2205 49.2838 42.4484 49.3141 43.562 49.6176C43.6594 49.6653 43.7822 49.6956 43.9093 49.7303C44.2438 49.8213 44.6206 49.921 44.6418 50.2895C44.6037 50.5236 44.4216 50.6709 44.1506 50.6926C43.8839 50.7143 43.6129 50.7099 43.3503 50.7056C43.2402 50.7056 43.1302 50.7056 43.0158 50.7056C42.1436 50.6146 41.2925 50.7966 40.4838 51.2345C39.3363 51.8587 38.1465 52.0971 36.9524 52.0971H36.9439ZM30.8043 50.8747C31.2955 50.8747 31.8121 50.97 32.3795 51.1608C35.0301 52.0061 37.8458 52.5913 40.4499 51.1738C41.2713 50.7273 42.1351 50.5452 43.0158 50.6363C43.1217 50.6363 43.236 50.6363 43.3461 50.6363C43.6086 50.6363 43.8754 50.6449 44.1379 50.6233C44.2268 50.6146 44.5232 50.5712 44.5698 50.2851C44.5529 49.973 44.2141 49.882 43.8881 49.7953C43.7568 49.7606 43.634 49.7259 43.5366 49.6783C42.44 49.3791 41.2205 49.3488 39.819 49.5916C37.1895 50.0511 34.6998 50.0554 32.2058 49.6089C30.9059 49.3748 29.7415 49.6176 28.7507 50.3285C28.5559 50.4369 28.4543 50.5799 28.4755 50.723C28.4967 50.8747 28.6491 51.0004 28.8693 51.0481C29.1868 51.1738 29.4917 51.1001 29.7754 51.0134C30.1099 50.9137 30.4486 50.866 30.8043 50.866V50.8747Z" fill="white"/>
<path d="M58.3353 50.0251C57.0269 50.1248 56.1589 48.9327 55.8794 47.8143L55.8582 47.7276L55.8456 47.6842C55.8456 47.6842 55.8456 47.6842 55.854 47.7146C56.0827 48.5859 57.2725 48.6812 57.6366 47.8793C57.1455 48.8676 56.6246 49.8603 55.6889 50.5192C54.6684 51.2171 53.4659 50.7663 53.0001 49.6739C52.7249 49.067 52.6318 48.4082 52.581 47.7926C52.5259 47.0644 52.5344 46.3621 52.5683 45.6382C52.5132 46.6482 53.8851 47.1294 54.4186 46.1627C54.4737 46.05 54.4525 46.0933 54.4567 46.0847V46.0933L54.4483 46.1107C53.9825 47.1034 53.25 48.8633 51.967 48.9673C50.2183 48.9673 50.1929 46.7002 50.1251 45.4258C50.1251 45.3651 50.1124 45.1614 50.1039 45.105C50.1039 45.105 50.1039 45.0963 50.1039 45.1267C50.1124 45.17 50.1251 45.2134 50.142 45.2524C50.3453 45.8246 51.0863 46.0673 51.5859 45.7162C51.624 45.6902 51.6664 45.6512 51.6664 45.6555L51.6918 45.6339L51.7002 45.6252H51.696L51.6452 45.6902C50.9508 46.5312 50.2775 47.4241 49.5577 48.2478C49.1936 48.6466 48.8464 49.0844 48.3637 49.3922L48.2959 49.4312C48.2578 49.4529 48.2028 49.4745 48.1604 49.4919C47.7539 49.6653 47.2458 49.5569 46.9452 49.2014C46.6742 48.911 46.5514 48.3952 46.5091 48.0744C46.4583 47.7146 46.4329 47.3114 46.382 46.9603C46.382 46.9516 46.382 46.9473 46.382 46.9516C46.382 46.9516 46.382 46.9646 46.4329 47.0774C46.4413 47.0947 46.454 47.112 46.4625 47.1337C46.7166 47.5629 47.339 47.7016 47.7455 47.4198L47.7836 47.3895C47.792 47.3851 47.8047 47.3721 47.7963 47.3765C47.7624 47.4068 47.4491 47.7579 47.4025 47.8099C46.8859 48.3648 46.2508 48.95 45.4421 49.0931C44.5021 49.2838 43.452 48.6206 43.0074 47.8099C42.3341 46.5832 42.3087 45.2481 42.0166 43.9779L42.0081 43.9259C42.0208 43.9823 42.042 44.0516 42.0758 44.1167C42.3722 44.7972 43.3292 44.8536 43.7103 44.2597L43.6933 44.2857C43.6721 44.3117 43.6171 44.3984 43.5959 44.4288C42.8676 45.4561 42.1394 46.5008 41.1739 47.3374C40.3271 48.07 39.3702 48.0397 38.6885 47.112C38.3751 46.6612 38.2608 46.2147 38.1465 45.7205C38.1465 45.7162 38.1084 45.5558 38.1084 45.5515C38.1168 45.5818 38.1253 45.6122 38.1422 45.6382C38.4598 46.3664 39.5141 46.3838 39.8486 45.6512C39.8529 45.6339 39.874 45.5948 39.8783 45.5775C39.8783 45.5688 39.8783 45.5732 39.8783 45.5775C39.8698 45.6035 39.8571 45.6772 39.8402 45.7466C39.7301 46.2537 39.62 46.7869 39.2389 47.2291C38.9044 47.6496 38.1888 47.8533 37.6849 47.5802C37.2149 47.3418 36.9058 46.9213 36.6137 46.5398C36.2326 46.0197 35.915 45.5081 35.6017 44.9923C35.3942 44.6455 34.9496 43.8956 34.7845 43.6225C35.1995 44.1037 35.9447 44.0516 36.2834 43.4881C36.2919 43.4664 36.33 43.3971 36.33 43.3884C36.3173 43.4144 36.2792 43.5748 36.2665 43.6051C36.0886 44.2901 35.932 44.9533 35.6695 45.6295C35.445 46.2104 35.0724 46.8953 34.3314 46.9473C33.2729 46.9603 32.1381 45.9243 31.4776 45.17C31.956 45.7509 32.9934 45.4691 33.0485 44.6108C32.9638 45.5992 32.1635 46.7132 31.3209 47.151L31.2277 47.1901L31.1346 47.2291L31.088 47.2464C31.0033 47.2724 30.9059 47.2941 30.817 47.3071C30.4698 47.3548 30.1523 47.2161 29.9321 47.0817C28.9286 46.3794 28.2723 45.3564 27.4593 44.5025L27.4127 44.4591C27.4 44.4461 27.3915 44.4374 27.4 44.4461C27.4 44.4461 27.4127 44.4548 27.4423 44.4764L27.4678 44.4938L27.5143 44.5198C27.9632 44.7452 28.5602 44.4808 28.7169 43.9909C28.738 43.9259 28.755 43.8522 28.7592 43.7829C28.7592 43.7395 28.7592 43.7525 28.7592 43.7612C28.7804 44.004 28.8354 44.277 28.882 44.5718C29.1614 46.2841 29.5933 49.4572 27.1714 49.6826C24.6351 49.7693 22.8524 46.6222 21.4636 44.9489C21.633 45.0313 21.8616 45.0226 22.0437 44.9099L22.2851 44.6802C22.302 44.6628 22.3147 44.6325 22.3189 44.6152C22.1242 45.3651 22.0014 46.2537 21.7897 47.0123C21.5906 47.7753 21.1503 48.9153 20.1468 48.7246C19.2195 48.4992 18.8088 47.5585 18.4404 46.7913C18.3091 46.4965 18.199 46.2104 18.0932 45.8939L18.2371 46.154C18.3557 46.4748 19.1517 46.4445 19.2195 46.2711C19.3592 46.1627 19.3719 46.1107 19.3931 46.089C19.4227 46.0413 19.4185 46.0457 19.4312 46.0197C19.4354 46.011 19.4312 46.024 19.427 46.0413L19.3888 46.1757C19.139 47.0644 18.8723 47.9443 18.1567 48.6032C17.2844 49.4138 15.9337 49.1451 15.252 48.2434C14.2231 46.917 14.0198 44.8622 13.9479 43.2627C13.8759 38.1692 15.722 33.1278 18.8172 29.1701C21.6669 25.4638 26.0493 23.4394 30.4275 22.3861C34.8268 21.2764 39.3363 21.4151 43.6933 22.6071C49.7864 24.081 55.5661 27.77 58.7418 33.4183C60.1729 35.9411 60.8038 38.9235 60.8123 41.8105C60.8123 41.8799 60.8208 42.0446 60.8165 42.114C60.7954 42.8032 60.7573 43.5445 60.7022 44.225C60.6302 45.1267 60.5328 46.0283 60.3635 46.9516C60.1264 48.0917 59.7834 49.8863 58.3395 50.0381L58.3353 50.0251ZM58.1955 47.9617C58.0855 47.9703 57.9881 48.005 57.9118 48.0657C57.8822 48.0917 57.8992 48.083 57.9161 48.0484C58.1363 47.6322 58.2633 47.0774 58.3564 46.5528C58.6063 45.131 58.6994 43.5921 58.746 42.1313C58.7545 41.9666 58.7333 41.7065 58.7291 41.5418C58.6782 39.0492 58.1193 36.6304 56.8956 34.476C54.8505 30.9084 51.497 28.1254 47.8259 26.4392C45.5648 25.4205 43.1386 24.7442 40.7039 24.3107C34.3018 23.0796 25.05 25.0997 20.7607 30.3665C17.6274 34.1985 15.6288 39.4264 15.9422 44.4548C16.0269 45.3521 16.1454 46.3578 16.6154 47.099C16.7297 47.2377 16.7594 47.2811 16.8779 47.3244C16.9753 47.3418 16.9711 47.3591 17.0939 47.2811C17.6105 46.8259 17.7968 46.0153 18.0635 45.3781L18.0889 45.3261C18.1016 45.3044 18.1101 45.2827 18.1397 45.2394C18.1652 45.209 18.1906 45.144 18.3388 45.027C18.4192 44.8449 19.2279 44.8146 19.3592 45.1483L19.5032 45.4084C19.6683 45.9026 19.8927 46.4315 20.1383 46.8346C20.223 46.9603 20.3627 47.1727 20.4559 47.2291C20.4559 47.2291 20.4559 47.2291 20.4135 47.2161C20.4135 47.2161 20.3246 47.1987 20.2738 47.2161C20.2188 47.2161 20.1595 47.2507 20.1298 47.2594C20.1129 47.2681 20.096 47.2854 20.0875 47.2854C20.079 47.2854 20.0748 47.2941 20.0663 47.2984C20.0579 47.3071 20.0579 47.3071 20.0579 47.3071C20.0579 47.3071 20.0663 47.2898 20.0748 47.2811L20.1002 47.2334C20.3966 46.6049 20.549 45.6382 20.6972 44.9229C20.765 44.6108 20.82 44.2727 20.9428 43.9649C20.9809 43.8869 21.0656 43.7395 21.1206 43.6615L21.2731 43.5748C21.5652 43.3971 21.9167 43.4274 22.1919 43.5878C22.4629 43.7439 22.6619 43.9519 22.8482 44.1557C23.3902 44.7495 23.8856 45.3781 24.4064 45.9546C25.0627 46.6612 26.1551 47.8836 27.0951 47.8099C27.2137 47.6799 27.2476 47.3028 27.2645 47.047C27.2814 46.6092 27.2433 46.1194 27.1756 45.6208C27.1205 45.2611 27.0613 44.8362 26.9935 44.4678C26.9639 44.2077 26.8961 43.9693 26.9088 43.6745C26.9258 42.9593 27.6498 42.4911 28.2807 42.8032C28.3527 42.8379 28.467 42.9116 28.5178 42.9549C28.865 43.2497 29.153 43.6225 29.4451 43.9519C29.9236 44.4895 30.3513 45.0486 30.8848 45.4561C30.8975 45.4648 30.9059 45.4605 30.8297 45.4388C30.7874 45.4258 30.7281 45.4084 30.5968 45.4171H30.5757C30.5757 45.4171 30.5757 45.4171 30.5672 45.4171H30.5587H30.546C30.5376 45.4171 30.5291 45.4171 30.5206 45.4214C30.4783 45.4301 30.5122 45.4301 30.563 45.3868C30.7916 45.2134 31.0965 44.7886 31.1685 44.4938C31.1812 44.2901 31.2955 43.9736 31.4818 43.8176C31.8925 43.4187 32.5742 43.5011 32.9045 43.9433C32.9299 43.9779 33.04 44.0906 33.0739 44.1253C33.4211 44.4721 33.8657 44.8709 34.306 45.014C34.2468 45.014 34.1748 45.014 34.1155 45.027C33.9419 45.066 33.8487 45.1267 33.7641 45.2134C33.7641 45.2134 33.781 45.1874 33.7979 45.157C34.124 44.4678 34.2722 43.6268 34.4881 42.8769C34.5177 42.7642 34.5686 42.6125 34.6363 42.4998C34.992 41.8972 35.7372 41.8409 36.186 42.335C36.258 42.4131 36.3342 42.5301 36.3935 42.6211C36.6052 42.9636 36.9863 43.6008 37.198 43.9563C37.6172 44.6108 38.0025 45.3044 38.5233 45.8246C38.536 45.8333 38.5149 45.8203 38.5149 45.8203C38.5149 45.8203 38.4937 45.8072 38.481 45.8029C38.3878 45.7596 38.265 45.7336 38.1634 45.7422C38.0491 45.7379 37.8331 45.8506 37.7993 45.9113C37.7739 45.9416 37.7781 45.9416 37.7866 45.9243C37.9729 45.5211 37.9221 44.9489 38.2396 44.5718C38.7647 43.9433 39.747 44.2077 39.9376 44.988C40.0222 45.2871 40.0731 45.6945 40.2297 45.9416C40.2467 45.9633 40.2382 45.9416 40.1704 45.9069C40.1577 45.8983 40.1366 45.8896 40.1196 45.8853C40.0222 45.8593 39.8698 45.8593 39.7936 45.8939C39.7894 45.8983 39.7978 45.8939 39.8063 45.8853C40.1577 45.6425 40.433 45.3001 40.7251 44.962C41.0723 44.5415 41.4111 44.0863 41.7371 43.6225C41.7667 43.5705 42.0081 43.2367 42.0377 43.1847C42.169 42.9593 42.4019 42.7598 42.6644 42.6992C43.2403 42.5431 43.8203 42.9549 43.905 43.5358C44.0956 44.3898 44.2141 45.4041 44.4343 46.18C44.5656 46.5919 44.7053 47.021 45.0991 47.099C45.1414 47.099 45.2896 47.0297 45.4463 46.9083C45.6961 46.7262 46.0137 46.3534 46.2423 46.102C46.3439 45.985 46.5175 45.8072 46.6784 45.7032C47.1442 45.3868 47.8302 45.5558 48.1096 46.0457C48.2959 46.3708 48.3044 46.6049 48.3467 46.917C48.3721 47.2074 48.4145 47.7276 48.4822 47.979C48.4822 47.979 48.4822 47.966 48.4611 47.9357C48.4484 47.914 48.4441 47.9096 48.4187 47.8706C48.1901 47.5759 47.7582 47.4632 47.4321 47.5932C47.4067 47.6019 47.3686 47.6192 47.3432 47.6366C47.3305 47.6452 47.3686 47.6192 47.3983 47.5889C48.2197 46.7956 48.9565 45.7812 49.6932 44.8796C49.8668 44.6672 50.1251 44.3247 50.3241 44.134C50.3749 44.0906 50.3876 44.0733 50.4681 44.017C50.5189 43.9866 50.4511 44.017 50.5993 43.9433C50.7645 43.8652 50.955 43.8262 51.1329 43.8479C51.552 43.8912 51.9035 44.2164 52.0051 44.6065C52.0729 44.8449 52.0686 45.0877 52.0856 45.3217C52.094 45.7596 52.1406 46.3448 52.2126 46.7436C52.2465 46.904 52.2761 47.0427 52.3269 47.138C52.3269 47.138 52.3227 47.1294 52.31 47.112C52.1575 46.917 51.7765 46.8736 51.6113 46.9863C51.5901 46.9993 51.6706 46.9386 51.7383 46.8519C52.0686 46.4315 52.382 45.7986 52.6064 45.2741C52.7757 44.7886 53.4193 44.5025 53.8936 44.7062C54.2535 44.8146 54.571 45.2914 54.5499 45.6642V45.7552V45.7856C54.5245 46.3881 54.516 47.021 54.5626 47.6149C54.6092 48.0484 54.6684 48.5729 54.8378 48.8633C54.7828 48.8026 54.6219 48.7679 54.5499 48.7983C54.5499 48.7983 54.5626 48.7983 54.588 48.7723C55.1554 48.3128 55.511 47.5412 55.8498 46.878C56.2605 46.141 57.3995 46.2061 57.7255 47.0037C57.7806 47.112 57.7891 47.2291 57.8272 47.3418C57.9161 47.6062 58.0431 47.8663 58.1786 47.953L58.1955 47.9617Z" fill="white"/>
<defs>
<clipPath id="clip0_448_5857">
<rect width="19.3774" height="19.9596" fill="white" transform="translate(60.6227 0.2323)"/>
</clipPath>
</defs>
</svg>
