<svg width="53" height="53" viewBox="0 0 53 53" fill="none" xmlns="http://www.w3.org/2000/svg">
<circle cx="26.9783" cy="26.2408" r="26" fill="#964738"/>
<g clip-path="url(#clip0_425_1419)">
<path d="M9.5987 26.8274C9.5987 26.8274 6.2078 24.8596 6.44743 22.6369C6.53278 21.8492 6.79538 21.081 7.0941 20.3488C7.39281 19.6167 7.72107 18.9564 8.092 18.2863C8.39728 17.7339 8.75508 17.2109 9.04394 16.6519C9.17196 16.4068 9.29013 16.1584 9.41159 15.9099C9.51991 15.6877 9.6348 15.4752 9.70702 15.2399C9.77924 15.0045 9.83832 14.7496 9.881 14.5011C9.94337 14.1449 9.97947 13.7853 10.0057 13.429C10.032 13.0923 10.0747 12.7589 10.0878 12.419C10.1009 12.1052 10.0944 11.762 10.1075 11.4416C10.1075 11.4318 10.1141 11.422 10.1206 11.422C10.3832 11.3828 10.6163 11.5985 10.7739 11.7783C11.3286 12.4124 11.6766 13.2492 11.7553 14.0795C11.8111 14.6613 11.798 15.2758 11.7422 15.8576C11.6963 16.3349 11.5617 16.7958 11.4698 17.2665C11.3253 17.979 11.1907 18.6949 11.066 19.4107C11.0168 19.6918 10.961 19.9762 10.938 20.2639C10.8887 20.8457 11.1415 21.3817 11.4632 21.4439C11.4632 21.4439 10.1206 23.5097 9.59541 26.8274H9.5987Z" fill="white"/>
<path d="M9.7924 27.2393L9.46743 27.0497C9.32299 26.9647 5.93538 24.9675 6.19142 22.6108C6.28662 21.7282 6.59846 20.8882 6.8545 20.2541C7.13024 19.5807 7.45849 18.8975 7.86225 18.1654C8.00012 17.9169 8.14783 17.6718 8.29227 17.4364C8.46952 17.1455 8.65335 16.8415 8.81091 16.5375C8.91924 16.3316 9.021 16.1192 9.12276 15.91L9.23108 15.691C9.31971 15.5112 9.40177 15.3445 9.45758 15.168C9.52651 14.9522 9.57903 14.7202 9.62499 14.4619C9.69064 14.086 9.72347 13.7036 9.74644 13.4127C9.75629 13.2852 9.76942 13.161 9.77927 13.0368C9.79896 12.8243 9.81866 12.6216 9.82851 12.4125C9.83507 12.2654 9.83507 12.1085 9.83836 11.9548C9.83836 11.7816 9.84164 11.6051 9.8482 11.4351C9.85477 11.3011 9.95325 11.1932 10.0813 11.1736C10.5211 11.105 10.8592 11.4907 10.9676 11.6149C11.5486 12.2752 11.9294 13.1675 12.0114 14.0631C12.0639 14.6221 12.0607 15.2562 11.9983 15.8903C11.9655 16.2368 11.89 16.5702 11.8145 16.8906C11.7816 17.0344 11.7488 17.1782 11.7193 17.322C11.5584 18.1196 11.4271 18.8191 11.3188 19.4598L11.2925 19.6003C11.2531 19.8291 11.2105 20.0612 11.1908 20.29C11.1448 20.8065 11.3713 21.1693 11.5092 21.1954L11.8867 21.2674L11.6799 21.5877C11.6667 21.6073 10.357 23.6535 9.8482 26.8699L9.78912 27.2425L9.7924 27.2393ZM10.357 11.7424C10.357 11.8143 10.357 11.8862 10.357 11.9581C10.357 12.1183 10.3537 12.2784 10.3472 12.4321C10.3373 12.6543 10.3176 12.8733 10.2979 13.0858C10.2848 13.2067 10.2749 13.331 10.2651 13.4519C10.2421 13.7559 10.206 14.1514 10.1371 14.5502C10.0878 14.8313 10.0287 15.083 9.95325 15.3216C9.88759 15.5373 9.78912 15.7302 9.6972 15.9198L9.59216 16.1355C9.4904 16.3447 9.38536 16.5604 9.27375 16.7729C9.10634 17.0932 8.91924 17.4038 8.73869 17.7012C8.59754 17.9333 8.45311 18.1719 8.32181 18.4105C7.9279 19.1264 7.60621 19.7932 7.33704 20.4469C7.09084 21.0484 6.7987 21.8459 6.70678 22.6664C6.52624 24.3105 8.59754 25.8631 9.40834 26.4057C9.86462 23.8856 10.7575 22.1532 11.1087 21.5452C10.8166 21.2935 10.636 20.7869 10.6853 20.2475C10.7082 19.9991 10.7509 19.7507 10.7936 19.5121L10.8166 19.3715C10.9282 18.7243 11.0595 18.0215 11.2203 17.2174C11.2499 17.0671 11.2827 16.92 11.3188 16.7729C11.391 16.4526 11.4599 16.1486 11.4928 15.8348C11.5519 15.2333 11.5551 14.6352 11.5059 14.1056C11.4304 13.3146 11.0956 12.5301 10.5868 11.9483C10.5047 11.8535 10.4292 11.7849 10.3636 11.7391L10.357 11.7424Z" fill="white"/>
<path d="M43.9936 26.1279C43.9936 26.1279 44.8143 26.8503 46.7542 24.8597C46.856 24.7551 46.9512 24.6374 47.0333 24.5132C47.7357 23.4476 47.5552 22.0028 47.2565 20.8359C46.8921 19.414 46.2553 18.1784 45.4182 16.9756C44.8077 16.0963 44.1348 15.1941 43.905 14.1285C43.6752 13.0629 43.4192 12.0071 43.5833 10.9089C43.5833 10.8991 43.5767 10.8958 43.5669 10.8991C42.5296 11.3403 42.0109 12.5432 41.7516 13.5598C41.6039 14.1351 41.5218 14.7332 41.5186 15.3249C41.5186 16.0571 41.7319 16.75 41.9387 17.4463C42.3195 18.7276 42.3097 20.1691 42.2013 21.4929C42.2013 21.4929 43.6292 23.4312 43.9903 26.1246L43.9936 26.1279Z" fill="white"/>
<path d="M44.4498 26.5169C44.069 26.5169 43.8688 26.36 43.8229 26.3208L43.7506 26.2587L43.7375 26.1639C43.3896 23.5685 42.0076 21.6662 41.9945 21.6498L41.9387 21.5714L41.9452 21.4766C42.0306 20.4273 42.0929 18.878 41.6925 17.5214L41.6728 17.4593C41.4693 16.7794 41.2625 16.0767 41.2625 15.3281C41.2625 14.7365 41.3445 14.122 41.5021 13.5009C41.8763 12.0333 42.5558 11.0527 43.4651 10.667C43.5537 10.6278 43.6587 10.6408 43.7342 10.6997C43.8097 10.7585 43.8491 10.8533 43.836 10.9514C43.6916 11.9222 43.8918 12.8603 44.1052 13.8507L44.1544 14.0795C44.3546 15.0176 44.9324 15.8413 45.4937 16.6422L45.6283 16.835C46.5605 18.1752 47.1579 19.4271 47.5059 20.7803C47.9392 22.4703 47.8539 23.7418 47.2466 24.6635C47.1547 24.8008 47.0529 24.9316 46.938 25.046C45.7694 26.2456 44.9521 26.5234 44.4498 26.5234V26.5169ZM44.2299 25.9645C44.4498 26.0397 45.1753 26.1116 46.5671 24.6832C46.659 24.5884 46.7411 24.487 46.8133 24.3759C47.3352 23.5816 47.3976 22.4441 47.0037 20.9013C46.6721 19.6101 46.101 18.4105 45.2048 17.1227L45.0702 16.9331C44.4827 16.093 43.8721 15.2235 43.6522 14.1841L43.6029 13.9553C43.4224 13.1152 43.2353 12.2523 43.2779 11.3599C42.5755 11.8797 42.198 12.8472 42.001 13.6252C41.8533 14.207 41.7778 14.779 41.7778 15.3281C41.7778 16.0015 41.9682 16.6389 42.1684 17.3122L42.1881 17.3744C42.605 18.7734 42.5525 20.3358 42.4704 21.421C42.7429 21.8132 43.8787 23.5718 44.2332 25.9612L44.2299 25.9645Z" fill="white"/>
<path d="M11.5782 32.7961C11.9294 32.9138 12.0246 33.0085 12.0705 33.2962C12.2051 33.8519 12.389 34.3977 12.6155 34.9207C14.4143 39.1079 18.1466 40.1899 22.3778 39.2681C22.8997 39.1635 23.4053 38.9805 23.9666 38.9445C24.6887 38.8791 25.4569 38.938 26.179 38.9412C27.2327 38.9445 28.2339 38.8857 29.3566 39.0589C33.6436 40.1572 39.2207 40.167 41.2887 35.5287C41.4463 35.1888 41.5808 34.8358 41.6925 34.4729C41.7483 34.2899 41.8008 34.1068 41.85 33.9205C41.8697 33.7603 41.9977 33.6198 42.1586 33.5348C42.2308 33.4989 42.3063 33.4596 42.4245 33.4269L42.7297 33.476C42.9825 33.6427 43.1466 33.9009 43.0744 34.1787C41.8434 41.1018 35.2619 42.2524 29.3369 40.7292C28.3652 40.52 27.236 40.5887 26.1757 40.5821C25.424 40.5821 24.61 40.5037 23.8681 40.6083C20.254 41.5627 16.246 41.5823 13.4492 38.7386C12.2183 37.4801 11.4173 35.8621 11.0037 34.1755C10.9512 33.9663 10.9052 33.7571 10.8691 33.5446C10.8002 33.2537 10.8429 33.0543 11.158 32.8451L11.5782 32.7961Z" fill="white"/>
<path d="M14.608 31.6586C14.969 32.0377 15.2809 32.4529 15.5829 32.8745C15.8717 33.2668 15.7306 33.8225 15.2973 34.048C14.539 34.5579 13.8103 35.2116 13.4295 36.0386L13.4 36.104L13.377 36.1694C13.3278 36.2936 13.2949 36.4374 13.2621 36.5649L12.0344 36.4407C12.0508 36.2315 12.0837 35.9961 12.1395 35.7935C12.471 34.5154 13.5641 33.4531 14.5751 32.8026C14.2633 32.9922 14.214 33.4564 14.3946 33.695C14.1024 33.2668 13.8201 32.8288 13.5904 32.3581L14.6047 31.6553L14.608 31.6586Z" fill="white"/>
<path d="M38.3442 33.2014C37.993 33.6002 37.6089 33.9597 37.215 34.3128C37.2281 34.3029 37.2675 34.2605 37.2872 34.2376C37.5269 33.9565 37.4579 33.4923 37.1461 33.2929C37.1395 33.2864 37.1231 33.2766 37.1264 33.2798C37.2117 33.3354 37.2971 33.391 37.3759 33.4465C39.2699 34.7442 40.5304 36.9996 39.7754 39.2975L38.5609 38.9608C39.0401 37.0715 37.8486 35.4339 36.2992 34.4598C35.9053 34.1787 35.879 33.5511 36.2467 33.2406C36.6504 32.8909 37.0607 32.5575 37.5039 32.26L38.3377 33.2014H38.3442Z" fill="white"/>
<path d="M29.327 14.2168L29.3172 18.2765C29.3172 18.3452 29.3599 18.404 29.4255 18.4236L33.8898 19.8259C34.008 19.8618 34.0375 20.0155 33.9423 20.0906L26.6288 26.0658C26.573 26.1116 26.4942 26.1116 26.4351 26.0658L18.7309 20.1854C18.6324 20.1103 18.6587 19.9566 18.7769 19.9174L23.1886 18.4824C23.2543 18.4596 23.297 18.3975 23.2937 18.3288L23.0869 14.2168C23.0836 14.1416 23.1361 14.073 23.2116 14.0566C23.809 13.9455 26.3662 13.5304 29.1957 14.0566C29.268 14.0697 29.3238 14.1351 29.3238 14.2103L29.327 14.2168Z" fill="white"/>
<path d="M22.2531 33.3877C23.4217 33.3812 24.4622 33.5479 25.5127 33.6525C27.8072 33.9368 30.1903 32.6555 32.3765 33.7048C35.577 35.7935 31.8743 37.8495 29.5896 38.1927C26.9964 38.9314 18.5897 38.8007 19.1313 34.8423C19.2889 33.7113 21.1665 33.2864 22.2563 33.3844L22.2531 33.3877ZM32.0286 34.7998C32.1894 34.7867 32.3568 34.7082 32.3863 34.5252C32.3667 34.1656 31.8349 34.1624 31.569 34.0414C30.6105 33.7865 29.629 33.8126 28.6705 33.9761C26.7009 34.3095 24.7478 34.3323 22.7783 33.9891C21.8362 33.8257 20.9006 33.9663 20.0833 34.5383C19.7255 34.7279 19.8141 35.0449 20.185 35.1266C20.4312 35.2214 20.6774 35.1659 20.9006 35.1005C21.5867 34.9044 22.2432 34.9861 22.903 35.2051C24.9612 35.8425 27.1539 36.287 29.1793 35.2116C29.7833 34.8913 30.4529 34.7377 31.1554 34.8096C31.4475 34.8096 31.7397 34.8259 32.0318 34.803L32.0286 34.7998Z" fill="white"/>
<path d="M26.2873 38.5718C25.8179 38.5718 25.3255 38.5555 24.82 38.5163C22.6141 38.3463 20.8842 37.807 19.9487 36.9996C19.2725 36.4145 18.9869 35.6889 19.1018 34.8423C19.2626 33.6819 21.2092 33.27 22.253 33.3615C23.1262 33.355 23.9337 33.4498 24.715 33.5381C24.9776 33.5675 25.2467 33.6002 25.5126 33.6263C26.435 33.7407 27.3837 33.6002 28.3028 33.4629C29.6651 33.2602 31.0733 33.051 32.383 33.6819C33.3547 34.316 33.7683 34.9894 33.614 35.6856C33.3284 36.9865 31.093 37.9933 29.5863 38.2188C28.9002 38.415 27.6988 38.5718 26.284 38.5718H26.2873ZM21.9445 33.4008C20.8842 33.4008 19.2922 33.8257 19.151 34.8488C19.0394 35.6758 19.3184 36.3884 19.9815 36.9604C20.9105 37.7612 22.6305 38.2973 24.8233 38.464C26.8454 38.6209 28.6672 38.428 29.5797 38.1698C31.0733 37.9443 33.2858 36.9538 33.5681 35.6758C33.7158 35.0024 33.3087 34.3487 32.3601 33.7276C31.0635 33.1033 29.6651 33.3125 28.3127 33.5152C27.3903 33.6525 26.435 33.793 25.5093 33.6786C25.2435 33.6525 24.9743 33.6198 24.7117 33.5904C23.9304 33.5021 23.1262 33.4073 22.253 33.4138C22.1578 33.404 22.0561 33.4008 21.9478 33.4008H21.9445ZM26.4482 35.8817C25.2566 35.8817 24.0552 35.5843 22.8899 35.2247C22.1414 34.9796 21.5112 34.9469 20.9039 35.1201C20.684 35.1822 20.4279 35.2443 20.1719 35.1463C19.9815 35.1038 19.8469 34.9959 19.8305 34.8586C19.8108 34.7279 19.8994 34.6004 20.0701 34.5121C20.8481 33.9695 21.7607 33.7832 22.7848 33.9597C24.7117 34.2964 26.6353 34.2931 28.6705 33.9466C29.7636 33.7603 30.7155 33.7832 31.5788 34.012C31.6543 34.048 31.7495 34.0709 31.848 34.097C32.1073 34.1656 32.3995 34.2408 32.4159 34.5187C32.3863 34.6952 32.2452 34.8063 32.0351 34.8227C31.8283 34.839 31.6182 34.8357 31.4147 34.8325C31.3293 34.8325 31.244 34.8325 31.1554 34.8325C30.4792 34.7638 29.8194 34.9011 29.1924 35.2312C28.3028 35.7019 27.3804 35.8817 26.4547 35.8817H26.4482ZM21.6884 34.9599C22.0692 34.9599 22.4697 35.0318 22.9096 35.1757C24.9644 35.8131 27.1474 36.2543 29.1661 35.1855C29.8029 34.8488 30.4726 34.7115 31.1554 34.7802C31.2374 34.7802 31.3261 34.7802 31.4114 34.7802C31.6149 34.7802 31.8217 34.7867 32.0252 34.7704C32.0942 34.7638 32.324 34.7311 32.3601 34.5154C32.3469 34.2801 32.0843 34.2114 31.8316 34.146C31.7298 34.1199 31.6346 34.0937 31.5591 34.0578C30.7089 33.8322 29.7636 33.8094 28.677 33.9924C26.6386 34.3389 24.7084 34.3422 22.775 34.0055C21.7672 33.829 20.8645 34.012 20.0964 34.5481C19.9454 34.6298 19.8666 34.7377 19.883 34.8455C19.8994 34.9599 20.0176 35.0547 20.1883 35.0907C20.4345 35.1855 20.6708 35.1299 20.8908 35.0645C21.1501 34.9894 21.4127 34.9534 21.6884 34.9534V34.9599Z" fill="white"/>
<path d="M43.0318 34.3193C42.0174 34.3945 41.3445 33.4956 41.1279 32.6523L41.1115 32.5869L41.1016 32.5542C41.1016 32.5542 41.1016 32.5542 41.1082 32.5771C41.2854 33.2341 42.2078 33.306 42.4901 32.7013C42.1094 33.4466 41.7056 34.1951 40.9802 34.6919C40.1891 35.2182 39.2568 34.8782 38.8957 34.0545C38.6824 33.5969 38.6101 33.1001 38.5708 32.6359C38.5281 32.0868 38.5346 31.5572 38.5609 31.0114C38.5182 31.773 39.5818 32.1358 39.9954 31.4069C40.0381 31.3219 40.0216 31.3546 40.0249 31.3481V31.3546L40.0184 31.3677C39.6573 32.1162 39.0894 33.4433 38.0948 33.5217C36.7391 33.5217 36.7194 31.8122 36.6669 30.8512C36.6669 30.8055 36.657 30.6518 36.6504 30.6093C36.6504 30.6093 36.6504 30.6028 36.6504 30.6257C36.657 30.6584 36.6669 30.691 36.68 30.7205C36.8376 31.1519 37.412 31.335 37.7993 31.0702C37.8289 31.0506 37.8617 31.0212 37.8617 31.0245L37.8814 31.0081L37.888 31.0016H37.8847L37.8453 31.0506C37.307 31.6847 36.785 32.3581 36.227 32.9791C35.9447 33.2799 35.6755 33.61 35.3013 33.8421L35.2488 33.8715C35.2192 33.8878 35.1766 33.9042 35.1437 33.9172C34.8286 34.048 34.4347 33.9663 34.2017 33.6982C33.9916 33.4792 33.8964 33.0903 33.8635 32.8484C33.8242 32.5771 33.8045 32.2731 33.7651 32.0083C33.7651 32.0018 33.7651 31.9985 33.7651 32.0018C33.7651 32.0018 33.7651 32.0116 33.8045 32.0966C33.811 32.1097 33.8209 32.1227 33.8274 32.1391C34.0244 32.4627 34.5069 32.5673 34.8221 32.3548L34.8516 32.3319C34.8582 32.3287 34.868 32.3189 34.8614 32.3221C34.8352 32.345 34.5923 32.6098 34.5562 32.649C34.1557 33.0674 33.6633 33.5087 33.0363 33.6165C32.3076 33.7604 31.4935 33.2602 31.1489 32.649C30.6269 31.724 30.6072 30.7172 30.3807 29.7595L30.3742 29.7202C30.384 29.7627 30.4004 29.815 30.4267 29.8641C30.6565 30.3773 31.3983 30.4197 31.6938 29.9719L31.6806 29.9915C31.6642 30.0112 31.6216 30.0765 31.6051 30.0994C31.0405 30.8741 30.4759 31.6618 29.7275 32.2927C29.071 32.8451 28.3291 32.8222 27.8006 32.1227C27.5577 31.7828 27.4691 31.4461 27.3805 31.0735C27.3805 31.0702 27.3509 30.9493 27.3509 30.946C27.3575 30.9689 27.3641 30.9918 27.3772 31.0114C27.6234 31.5605 28.4407 31.5736 28.7001 31.0212C28.7033 31.0081 28.7198 30.9787 28.723 30.9656C28.723 30.9591 28.723 30.9623 28.723 30.9656C28.7165 30.9852 28.7066 31.0408 28.6935 31.0931C28.6082 31.4755 28.5228 31.8776 28.2274 32.211C27.9681 32.5281 27.4133 32.6817 27.0227 32.4758C26.6583 32.296 26.4187 31.9789 26.1922 31.6913C25.8968 31.299 25.6506 30.9133 25.4076 30.5243C25.2468 30.2628 24.9021 29.6974 24.7741 29.4914C25.0958 29.8543 25.6735 29.815 25.9361 29.3901C25.9427 29.3738 25.9723 29.3215 25.9723 29.3149C25.9624 29.3345 25.9329 29.4555 25.923 29.4784C25.7851 29.9948 25.6637 30.4949 25.4602 31.0048C25.2862 31.4428 24.9973 31.9593 24.4229 31.9985C23.6022 32.0083 22.7225 31.2271 22.2104 30.6584C22.5814 31.0964 23.3856 30.8839 23.4283 30.2367C23.3626 30.982 22.7422 31.822 22.089 32.1522L22.0168 32.1816L21.9445 32.211L21.9084 32.2241C21.8428 32.2437 21.7673 32.26 21.6983 32.2698C21.4292 32.3058 21.183 32.2012 21.0123 32.0999C20.2343 31.5703 19.7255 30.7989 19.0953 30.155L19.0592 30.1223C19.0493 30.1125 19.0427 30.1059 19.0493 30.1125C19.0493 30.1125 19.0592 30.119 19.0821 30.1354L19.1018 30.1484L19.1379 30.1681C19.4859 30.338 19.9487 30.1386 20.0702 29.7693C20.0866 29.7202 20.0997 29.6647 20.103 29.6124C20.103 29.5797 20.103 29.5895 20.103 29.596C20.1194 29.7791 20.1621 29.985 20.1982 30.2073C20.4149 31.4984 20.7497 33.8911 18.8721 34.0611C16.9058 34.1264 15.5238 31.7534 14.4472 30.4917C14.5785 30.5538 14.7557 30.5472 14.8969 30.4622L15.084 30.289C15.0971 30.2759 15.1069 30.253 15.1102 30.24C14.9592 30.8054 14.864 31.4755 14.6999 32.0476C14.5456 32.6228 14.2042 33.4825 13.4263 33.3387C12.7074 33.1687 12.389 32.4594 12.1034 31.8809C12.0016 31.6586 11.9163 31.4428 11.8342 31.2042L11.9458 31.4004C12.0377 31.6422 12.6549 31.6194 12.7074 31.4886C12.8157 31.4069 12.8256 31.3677 12.842 31.3513C12.865 31.3154 12.8617 31.3186 12.8715 31.299C12.8748 31.2925 12.8715 31.3023 12.8682 31.3154L12.8387 31.4167C12.645 32.0868 12.4382 32.7503 11.8835 33.2472C11.2073 33.8584 10.1601 33.6558 9.63162 32.9759C8.83396 31.9756 8.6764 30.4263 8.62059 29.2201C8.56479 25.3794 9.99599 21.5779 12.3955 18.5936C14.6047 15.7989 18.0022 14.2724 21.3964 13.4781C24.8069 12.6413 28.3029 12.7459 31.6806 13.6448C36.4043 14.7561 40.885 17.5378 43.3469 21.7969C44.4564 23.6993 44.9455 25.9482 44.9521 28.1251C44.9521 28.1774 44.9586 28.3016 44.9553 28.3539C44.9389 28.8736 44.9094 29.4326 44.8667 29.9458C44.8109 30.6257 44.7354 31.3056 44.6041 32.0018C44.4203 32.8615 44.1544 34.2147 43.035 34.3291L43.0318 34.3193ZM42.9234 32.7634C42.8381 32.7699 42.7626 32.7961 42.7035 32.8418C42.6805 32.8615 42.6937 32.8549 42.7068 32.8288C42.8775 32.515 42.976 32.0966 43.0482 31.7011C43.2418 30.6289 43.3141 29.4686 43.3502 28.367C43.3567 28.2428 43.3403 28.0467 43.337 27.9225C43.2976 26.043 42.8643 24.219 41.9157 22.5945C40.3302 19.9043 37.7304 17.8058 34.8844 16.5343C33.1315 15.7662 31.2506 15.2563 29.3631 14.9294C24.3999 14.0011 17.2275 15.5243 13.9022 19.4958C11.4731 22.3853 9.92377 26.3273 10.1667 30.119C10.2323 30.7956 10.3242 31.554 10.6886 32.1129C10.7772 32.2175 10.8002 32.2502 10.8921 32.2829C10.9676 32.296 10.9643 32.3091 11.0595 32.2502C11.46 31.907 11.6044 31.2958 11.8112 30.8153L11.8309 30.776C11.8408 30.7597 11.8474 30.7433 11.8703 30.7107C11.89 30.6878 11.9097 30.6387 12.0246 30.5505C12.087 30.4132 12.714 30.3903 12.8157 30.642L12.9273 30.8381C13.0553 31.2108 13.2293 31.6096 13.4197 31.9135C13.4854 32.0083 13.5937 32.1685 13.6659 32.211C13.6659 32.211 13.6659 32.211 13.6331 32.2012C13.6331 32.2012 13.5641 32.1881 13.5248 32.2012C13.4821 32.2012 13.4361 32.2273 13.4131 32.2339C13.4 32.2404 13.3869 32.2535 13.3803 32.2535C13.3738 32.2535 13.3705 32.26 13.3639 32.2633C13.3573 32.2698 13.3573 32.2698 13.3573 32.2698C13.3573 32.2698 13.3639 32.2568 13.3705 32.2502L13.3902 32.2143C13.6199 31.7403 13.7381 31.0114 13.853 30.472C13.9055 30.2367 13.9482 29.9817 14.0434 29.7497C14.0729 29.6908 14.1386 29.5797 14.1813 29.5209L14.2994 29.4555C14.5259 29.3215 14.7984 29.3443 15.0118 29.4653C15.2218 29.583 15.3761 29.7399 15.5206 29.8935C15.9407 30.3413 16.3248 30.8153 16.7285 31.25C17.2373 31.7828 18.0842 32.7046 18.813 32.649C18.9049 32.5509 18.9311 32.2666 18.9443 32.0737C18.9574 31.7436 18.9279 31.3742 18.8753 30.9983C18.8327 30.727 18.7867 30.4067 18.7342 30.1288C18.7112 29.9327 18.6587 29.7529 18.6685 29.5307C18.6817 28.9913 19.243 28.6383 19.7321 28.8736C19.7879 28.8998 19.8765 28.9554 19.9159 28.9881C20.1851 29.2103 20.4083 29.4914 20.6348 29.7399C21.0057 30.1452 21.3373 30.5668 21.7509 30.8741C21.7607 30.8806 21.7673 30.8774 21.7082 30.861C21.6754 30.8512 21.6294 30.8381 21.5277 30.8447H21.5112C21.5112 30.8447 21.5112 30.8447 21.5047 30.8447H21.4981H21.4883C21.4817 30.8447 21.4751 30.8447 21.4686 30.8479C21.4357 30.8545 21.462 30.8545 21.5014 30.8218C21.6787 30.691 21.915 30.3707 21.9708 30.1484C21.9806 29.9948 22.0693 29.7562 22.2137 29.6385C22.5321 29.3378 23.0606 29.3999 23.3167 29.7333C23.3363 29.7595 23.4217 29.8445 23.448 29.8706C23.7171 30.1321 24.0618 30.4328 24.4032 30.5407C24.3572 30.5407 24.3014 30.5407 24.2555 30.5505C24.1209 30.5799 24.0487 30.6257 23.983 30.691C23.983 30.691 23.9961 30.6714 24.0093 30.6486C24.262 30.1288 24.3769 29.4947 24.5443 28.9292C24.5673 28.8442 24.6067 28.7298 24.6592 28.6448C24.935 28.1905 25.5127 28.148 25.8606 28.5206C25.9164 28.5795 25.9755 28.6677 26.0215 28.7364C26.1856 28.9946 26.481 29.4751 26.6452 29.7431C26.9702 30.2367 27.2689 30.7597 27.6726 31.1519C27.6825 31.1585 27.6661 31.1487 27.6661 31.1487C27.6661 31.1487 27.6496 31.1389 27.6398 31.1356C27.5676 31.1029 27.4724 31.0833 27.3936 31.0898C27.305 31.0866 27.1376 31.1715 27.1113 31.2173C27.0916 31.2402 27.0949 31.2402 27.1015 31.2271C27.2459 30.9231 27.2065 30.4917 27.4527 30.2073C27.8597 29.7333 28.6213 29.9327 28.769 30.5211C28.8347 30.7466 28.874 31.0539 28.9955 31.2402C29.0086 31.2565 29.0021 31.2402 28.9495 31.214C28.9397 31.2075 28.9233 31.201 28.9102 31.1977C28.8347 31.1781 28.7165 31.1781 28.6574 31.2042C28.6541 31.2075 28.6607 31.2042 28.6672 31.1977C28.9397 31.0146 29.1531 30.7564 29.3796 30.5015C29.6487 30.1844 29.9113 29.8412 30.1641 29.4914C30.1871 29.4522 30.3742 29.2005 30.3972 29.1613C30.4989 28.9913 30.6795 28.841 30.883 28.7952C31.3294 28.6775 31.7791 28.9881 31.8448 29.4261C31.9925 30.07 32.0844 30.8349 32.2551 31.42C32.3568 31.7305 32.4652 32.0541 32.7705 32.1129C32.8033 32.1129 32.9182 32.0606 33.0396 31.9691C33.2333 31.8318 33.4795 31.5507 33.6567 31.3611C33.7355 31.2729 33.8701 31.1389 33.9948 31.0604C34.3559 30.8218 34.8877 30.9493 35.1044 31.3186C35.2488 31.5638 35.2554 31.7403 35.2882 31.9756C35.3079 32.1946 35.3407 32.5869 35.3932 32.7765C35.3932 32.7765 35.3932 32.7667 35.3768 32.7438C35.367 32.7274 35.3637 32.7242 35.344 32.6948C35.1667 32.4725 34.8319 32.3875 34.5791 32.4856C34.5595 32.4921 34.5299 32.5052 34.5102 32.5182C34.5004 32.5248 34.5299 32.5052 34.5529 32.4823C35.1897 31.8841 35.7609 31.1192 36.332 30.4394C36.4666 30.2792 36.6669 30.021 36.8211 29.8771C36.8605 29.8445 36.8704 29.8314 36.9327 29.7889C36.9721 29.766 36.9196 29.7889 37.0345 29.7333C37.1625 29.6745 37.3102 29.6451 37.4481 29.6614C37.7731 29.6941 38.0455 29.9392 38.1243 30.2334C38.1768 30.4132 38.1736 30.5963 38.1867 30.7728C38.1933 31.1029 38.2294 31.5442 38.2852 31.8449C38.3114 31.9658 38.3344 32.0704 38.3738 32.1423C38.3738 32.1423 38.3705 32.1358 38.3607 32.1227C38.2425 31.9756 37.9471 31.943 37.819 32.0279C37.8026 32.0377 37.865 31.992 37.9175 31.9266C38.1736 31.6096 38.4165 31.1323 38.5904 30.7368C38.7217 30.3707 39.2207 30.155 39.5883 30.3086C39.8674 30.3903 40.1136 30.7499 40.0971 31.031V31.0996V31.1225C40.0774 31.5769 40.0709 32.0541 40.107 32.5019C40.1431 32.8288 40.1891 33.2243 40.3204 33.4433C40.2777 33.3975 40.1529 33.3714 40.0971 33.3943C40.0971 33.3943 40.107 33.3943 40.1267 33.3746C40.5666 33.0282 40.8423 32.4463 41.1049 31.9462C41.4233 31.3905 42.3063 31.4396 42.5591 32.041C42.6017 32.1227 42.6083 32.211 42.6379 32.296C42.7068 32.4954 42.8053 32.6915 42.9103 32.7569L42.9234 32.7634Z" fill="white"/>
</g>
<defs>
<clipPath id="clip0_425_1419">
<rect width="41.6" height="30.68" fill="white" transform="translate(6.17834 10.6408)"/>
</clipPath>
</defs>
</svg>
