<svg width="101" height="75" viewBox="0 0 101 75" fill="none" xmlns="http://www.w3.org/2000/svg">
<path d="M9.22217 39.042C9.22217 39.042 1.07098 34.2958 1.64701 28.9346C1.85217 27.0345 2.48344 25.1818 3.2015 23.4157C3.91956 21.6497 4.70864 20.0571 5.6003 18.4409C6.33414 17.1085 7.19424 15.847 7.88863 14.4988C8.19637 13.9075 8.48044 13.3083 8.7724 12.7091C9.03279 12.173 9.30897 11.6606 9.48257 11.0929C9.65616 10.5252 9.7982 9.91029 9.90078 9.3111C10.0507 8.45173 10.1375 7.58448 10.2006 6.72512C10.2638 5.91306 10.3663 5.10888 10.3979 4.28894C10.4295 3.53206 10.4137 2.70424 10.4452 1.93159C10.4452 1.90794 10.461 1.88429 10.4768 1.88429C11.1081 1.78968 11.6683 2.31003 12.0471 2.74366C13.3806 4.27317 14.217 6.29149 14.4064 8.29405C14.5406 9.69742 14.509 11.1796 14.3749 12.583C14.2644 13.7341 13.9409 14.8457 13.7199 15.981C13.3727 17.6998 13.0492 19.4264 12.7494 21.153C12.631 21.831 12.4968 22.5169 12.4416 23.2107C12.3233 24.6141 12.9308 25.9071 13.7041 26.0569C13.7041 26.0569 10.4768 31.0396 9.21428 39.042H9.22217Z" fill="white"/>
<path d="M9.68774 40.0354L8.90656 39.5781C8.55936 39.3731 0.416064 34.5559 1.03155 28.8715C1.26038 26.7428 2.01 24.7166 2.62549 23.1871C3.28831 21.563 4.07739 19.9152 5.04796 18.1492C5.37937 17.55 5.73446 16.9587 6.08165 16.391C6.50776 15.6893 6.94964 14.9561 7.3284 14.2229C7.58879 13.7262 7.83341 13.2137 8.07802 12.7091L8.33842 12.1809C8.55147 11.7473 8.74874 11.3452 8.88288 10.9194C9.04859 10.3991 9.17484 9.83933 9.28531 9.21649C9.44313 8.30982 9.52204 7.38738 9.57727 6.68569C9.60095 6.37822 9.63251 6.07862 9.65618 5.77903C9.70353 5.26656 9.75087 4.77775 9.77454 4.27317C9.79032 3.91838 9.79032 3.53995 9.79821 3.16939C9.79821 2.75154 9.80611 2.3258 9.82189 1.91582C9.83767 1.59258 10.0744 1.3324 10.3821 1.2851C11.4395 1.11953 12.2523 2.04985 12.5126 2.34945C13.9093 3.94203 14.8246 6.09439 15.0219 8.25463C15.1482 9.60281 15.1403 11.1323 14.9904 12.6618C14.9114 13.4975 14.73 14.3017 14.5485 15.0744C14.4696 15.4213 14.3907 15.7682 14.3196 16.1151C13.933 18.0388 13.6174 19.726 13.357 21.2712L13.2938 21.6103C13.1991 22.1621 13.0966 22.7219 13.0492 23.2738C12.9388 24.5195 13.4832 25.3946 13.8146 25.4577L14.7221 25.6311L14.2249 26.4038C14.1934 26.4511 11.045 31.3865 9.82189 39.1445L9.67985 40.0433L9.68774 40.0354ZM11.045 2.65693C11.045 2.83038 11.045 3.00383 11.045 3.17728C11.045 3.5636 11.0371 3.94992 11.0213 4.32047C10.9976 4.85659 10.9503 5.38482 10.9029 5.89729C10.8714 6.189 10.8477 6.48859 10.824 6.7803C10.7688 7.51352 10.682 8.4675 10.5163 9.42936C10.3979 10.1074 10.2559 10.7145 10.0744 11.29C9.91658 11.8103 9.67985 12.2755 9.45891 12.7328L9.20641 13.2531C8.96179 13.7577 8.70929 14.2781 8.441 14.7905C8.03857 15.5632 7.58879 16.3122 7.1548 17.0296C6.8155 17.5894 6.4683 18.1649 6.15267 18.7405C5.20577 20.4671 4.43248 22.0754 3.78543 23.6522C3.19362 25.1029 2.49134 27.0266 2.2704 29.0055C1.83641 32.9712 6.8155 36.7162 8.76452 38.0249C9.86134 31.9463 12.0076 27.7677 12.852 26.3013C12.1497 25.6942 11.7157 24.4722 11.834 23.1713C11.8893 22.5721 11.9919 21.9729 12.0944 21.3974L12.1497 21.0584C12.418 19.4973 12.7336 17.8023 13.1202 15.8628C13.1913 15.5001 13.2702 15.1453 13.357 14.7905C13.5306 14.0179 13.6963 13.2847 13.7752 12.5278C13.9172 11.0771 13.9251 9.63434 13.8067 8.35712C13.6252 6.44917 12.8204 4.55699 11.5973 3.15363C11.4 2.92499 11.2186 2.75942 11.0607 2.64904L11.045 2.65693Z" fill="white"/>
<path d="M91.9019 37.3548C91.9019 37.3548 93.8746 39.0971 98.5381 34.2957C98.7827 34.0435 99.0115 33.7596 99.2088 33.46C100.897 30.8898 100.463 27.4051 99.7454 24.5904C98.8695 21.1609 97.3387 18.1807 95.3265 15.2793C93.8588 13.1585 92.2412 10.9825 91.6889 8.4123C91.1365 5.84209 90.521 3.29553 90.9156 0.646482C90.9156 0.62283 90.8998 0.614945 90.8761 0.62283C88.3826 1.68718 87.1359 4.58852 86.5125 7.04047C86.1574 8.42807 85.9602 9.87086 85.9523 11.2979C85.9523 13.0639 86.4652 14.7353 86.9623 16.4146C87.8776 19.5052 87.8539 22.9821 87.5936 26.1751C87.5936 26.1751 91.026 30.8504 91.894 37.3469L91.9019 37.3548Z" fill="white"/>
<path d="M92.9987 38.293C92.0834 38.293 91.6021 37.9146 91.4916 37.8199L91.318 37.6701L91.2864 37.4415C90.45 31.1815 87.128 26.593 87.0964 26.5536L86.9623 26.3644L86.9781 26.1357C87.1832 23.6049 87.3332 19.8679 86.3705 16.596L86.3231 16.4462C85.8339 14.8063 85.3368 13.1112 85.3368 11.3058C85.3368 9.87875 85.5341 8.39654 85.9128 6.89857C86.8124 3.35861 88.4458 0.993389 90.6315 0.0630672C90.8446 -0.0315418 91.0971 -5.46686e-06 91.2786 0.141908C91.4601 0.283822 91.5547 0.51246 91.5232 0.748982C91.176 3.09055 91.6573 5.35329 92.1702 7.74216L92.2886 8.29405C92.7699 10.5568 94.1587 12.5436 95.508 14.4752L95.8315 14.9403C98.0725 18.1728 99.5087 21.1924 100.345 24.4564C101.387 28.5325 101.182 31.5994 99.7217 33.8227C99.5008 34.1538 99.2561 34.4692 98.98 34.7451C96.1708 37.6386 94.206 38.3088 92.9987 38.3088V38.293ZM92.4701 36.9606C92.9988 37.1419 94.7426 37.3154 98.0883 33.87C98.3093 33.6414 98.5065 33.397 98.6801 33.1289C99.9348 31.2131 100.085 28.4694 99.1378 24.7481C98.3408 21.6339 96.9678 18.7405 94.8136 15.6341L94.4901 15.1769C93.0777 13.1506 91.61 11.0535 91.0813 8.54634L90.9629 7.99446C90.5289 5.96825 90.0792 3.88685 90.1817 1.73449C88.4931 2.98806 87.5857 5.32175 87.1122 7.19816C86.7571 8.60153 86.5756 9.98124 86.5756 11.3058C86.5756 12.9299 87.0333 14.4673 87.5147 16.0914L87.562 16.2412C88.5641 19.6156 88.4379 23.3842 88.2406 26.0017C88.8955 26.9478 91.6258 31.1894 92.478 36.9527L92.4701 36.9606Z" fill="white"/>
<path d="M13.9803 53.4383C14.8247 53.7221 15.0535 53.9508 15.164 54.6446C15.4875 55.9849 15.9294 57.3015 16.4738 58.563C20.798 68.6625 29.7698 71.2721 39.941 69.0488C41.1957 68.7965 42.4109 68.355 43.7602 68.2683C45.4962 68.1106 47.3426 68.2525 49.0786 68.2604C51.6115 68.2683 54.0182 68.1264 56.7169 68.5442C67.0222 71.1933 80.4287 71.2169 85.3999 60.0294C85.7786 59.2095 86.1022 58.358 86.3705 57.4828C86.5046 57.0413 86.6309 56.5998 86.7492 56.1504C86.7966 55.7641 87.1043 55.4251 87.491 55.2201C87.6646 55.1334 87.846 55.0388 88.1301 54.9599L88.864 55.0782C89.4715 55.4803 89.8661 56.1031 89.6925 56.7733C86.7334 73.4718 70.9124 76.247 56.6695 72.573C54.3339 72.0684 51.6194 72.234 49.0707 72.2182C47.2637 72.2182 45.3068 72.029 43.5235 72.2813C34.8357 74.5834 25.201 74.6307 18.4781 67.7716C15.519 64.7362 13.5937 60.8336 12.5995 56.7654C12.4732 56.2608 12.3627 55.7562 12.2759 55.2438C12.1102 54.5421 12.2128 54.0612 12.9703 53.5566L13.9803 53.4383Z" fill="white"/>
<path d="M21.2635 50.6947C22.1315 51.6092 22.8811 52.6105 23.6071 53.6275C24.3015 54.5736 23.9622 55.9139 22.9206 56.4579C21.0978 57.6878 19.3461 59.2646 18.4307 61.2593L18.3597 61.417L18.3045 61.5747C18.1861 61.8743 18.1072 62.2212 18.0283 62.5287L15.0771 62.2291C15.1166 61.7245 15.1955 61.1568 15.3297 60.668C16.1266 57.5853 18.7543 55.023 21.1846 53.4541C20.435 53.9114 20.3166 55.0309 20.7506 55.6064C20.0483 54.5736 19.3697 53.5172 18.8174 52.3818L21.2556 50.6868L21.2635 50.6947Z" fill="white"/>
<path d="M78.3218 54.4159C77.4775 55.3778 76.5543 56.245 75.6074 57.0965C75.639 57.0729 75.7337 56.9704 75.781 56.9152C76.357 56.2372 76.1913 55.1176 75.4417 54.6367C75.4259 54.6209 75.3865 54.5973 75.3944 54.6052C75.5995 54.7392 75.8047 54.8732 75.9941 55.0072C80.547 58.1372 83.5771 63.5772 81.7622 69.1198L78.8426 68.3077C79.9947 63.7507 77.1303 59.8008 73.4059 57.4513C72.459 56.7733 72.3959 55.2595 73.2796 54.5105C74.2502 53.667 75.2365 52.8628 76.3018 52.1453L78.3061 54.4159H78.3218Z" fill="white"/>
<path d="M56.6458 8.62519L56.6222 18.4172C56.6222 18.5828 56.7248 18.7247 56.8826 18.772L67.614 22.1543C67.8981 22.241 67.9691 22.6116 67.7403 22.7929L50.1596 37.205C50.0255 37.3154 49.8361 37.3154 49.6941 37.205L31.1744 23.0215C30.9376 22.8402 31.0008 22.4696 31.2848 22.375L41.8901 18.9139C42.0479 18.8587 42.1505 18.7089 42.1426 18.5434L41.6454 8.62519C41.6376 8.44385 41.7638 8.27829 41.9453 8.23887C43.3814 7.97081 49.5284 6.96953 56.3302 8.23887C56.5038 8.2704 56.638 8.42808 56.638 8.60942L56.6458 8.62519Z" fill="white"/>
<path d="M39.6412 54.8653C42.4503 54.8496 44.9517 55.2517 47.4767 55.5039C52.9924 56.1899 58.7211 53.0993 63.9764 55.6301C71.6699 60.668 62.7691 65.6271 57.2771 66.4549C51.0434 68.2367 30.8351 67.9214 32.137 58.3737C32.5158 55.6459 37.0293 54.6209 39.6491 54.8574L39.6412 54.8653ZM63.1399 58.2713C63.5266 58.2397 63.929 58.0505 64 57.609C63.9527 56.7417 62.6744 56.7339 62.0352 56.4421C59.7311 55.8272 57.3718 55.8903 55.0677 56.2845C50.3332 57.0886 45.6382 57.1438 40.9037 56.316C38.639 55.9218 36.3902 56.2608 34.4254 57.6405C33.5653 58.0978 33.7783 58.8626 34.67 59.0597C35.2618 59.2883 35.8536 59.1543 36.3902 58.9966C38.0393 58.5235 39.6175 58.7206 41.2036 59.2489C46.1511 60.7863 51.4221 61.8585 56.2907 59.2646C57.7426 58.492 59.3524 58.1215 61.041 58.2949C61.7433 58.2949 62.4456 58.3343 63.1478 58.2791L63.1399 58.2713Z" fill="white"/>
<path d="M49.339 67.3695C48.2106 67.3695 47.027 67.3301 45.8118 67.2355C40.5092 66.8255 36.3507 65.5246 34.1018 63.5772C32.4763 62.166 31.7898 60.4157 32.066 58.3737C32.4527 55.5749 37.1319 54.5815 39.6412 54.8023C41.7401 54.7865 43.6813 55.0151 45.5593 55.228C46.1905 55.299 46.8376 55.3778 47.4767 55.4409C49.6941 55.7168 51.9745 55.3778 54.1839 55.0467C57.4586 54.5579 60.8437 54.0533 63.9922 55.5749C66.3278 57.1044 67.3221 58.7285 66.9512 60.4078C66.2647 63.5457 60.8911 65.974 57.2692 66.518C55.62 66.9911 52.732 67.3695 49.3311 67.3695H49.339ZM38.8994 54.8969C36.3507 54.8969 32.5237 55.9218 32.1844 58.3895C31.9161 60.3842 32.5868 62.1029 34.1808 63.4826C36.4139 65.4142 40.5486 66.7072 45.8197 67.1093C50.6804 67.4878 55.0598 67.0226 57.2534 66.3997C60.8437 65.8557 66.1621 63.4669 66.8407 60.3842C67.1958 58.7601 66.2174 57.1832 63.9369 55.6853C60.8201 54.1794 57.4586 54.684 54.2076 55.1728C51.9903 55.5039 49.694 55.843 47.4688 55.567C46.8297 55.5039 46.1826 55.4251 45.5514 55.3541C43.6734 55.1413 41.7401 54.9126 39.6412 54.9284C39.4124 54.9047 39.1677 54.8969 38.9073 54.8969H38.8994ZM49.7256 60.8809C46.8613 60.8809 43.9732 60.1634 41.172 59.2962C39.3729 58.7049 37.8579 58.626 36.3981 59.0439C35.8694 59.1937 35.2539 59.3435 34.6384 59.107C34.1808 59.0045 33.8572 58.7443 33.8178 58.4132C33.7704 58.0978 33.9835 57.7903 34.3938 57.5775C36.2639 56.2687 38.4576 55.8193 40.9195 56.245C45.5514 57.0571 50.1754 57.0492 55.0677 56.2135C57.6953 55.7641 59.9836 55.8193 62.0589 56.3712C62.2404 56.4579 62.4692 56.5131 62.706 56.5762C63.3293 56.7417 64.0316 56.9231 64.0711 57.5932C64.0001 58.019 63.6607 58.287 63.1557 58.3264C62.6586 58.3659 62.1536 58.358 61.6644 58.3501C61.4592 58.3501 61.2541 58.3501 61.041 58.3501C59.4155 58.1845 57.8295 58.5157 56.3223 59.312C54.1839 60.4473 51.9666 60.8809 49.7414 60.8809H49.7256ZM38.284 58.6576C39.1993 58.6576 40.162 58.831 41.2193 59.1779C46.159 60.7153 51.4064 61.7797 56.2592 59.2016C57.79 58.3895 59.3997 58.0584 61.041 58.2239C61.2383 58.2239 61.4513 58.2239 61.6565 58.2239C62.1457 58.2239 62.6428 58.2397 63.1321 58.2003C63.2978 58.1845 63.8501 58.1057 63.9369 57.5853C63.9054 57.0177 63.2741 56.8521 62.6665 56.6944C62.4219 56.6314 62.1931 56.5683 62.0116 56.4816C59.9679 55.9376 57.6953 55.8824 55.0835 56.3239C50.1833 57.1596 45.5435 57.1675 40.8958 56.3554C38.4733 55.9297 36.3034 56.3712 34.4569 57.6642C34.094 57.8613 33.9046 58.1215 33.944 58.3816C33.9835 58.6576 34.2676 58.8862 34.6779 58.9729C35.2697 59.2016 35.8378 59.0675 36.3665 58.9099C36.9899 58.7285 37.6211 58.6418 38.284 58.6418V58.6576Z" fill="white"/>
<path d="M89.5899 57.1123C87.1516 57.2936 85.534 55.1255 85.0132 53.0914L84.9738 52.9337L84.9501 52.8549C84.9501 52.8549 84.9501 52.8549 84.9659 52.9101C85.392 54.4948 87.6093 54.6682 88.2879 53.2097C87.3726 55.0072 86.402 56.8127 84.6581 58.0111C82.7565 59.2804 80.5155 58.4605 79.6475 56.4737C79.1346 55.3699 78.961 54.1715 78.8663 53.052C78.7637 51.7275 78.7795 50.4502 78.8426 49.1336C78.7401 50.9706 81.2967 51.8457 82.2909 50.0876C82.3935 49.8826 82.354 49.9614 82.3619 49.9457V49.9614L82.3461 49.993C81.4782 51.7984 80.1131 54.9994 77.7221 55.1886C74.4632 55.1886 74.4159 51.0652 74.2896 48.7473C74.2896 48.6369 74.266 48.2663 74.2502 48.1639C74.2502 48.1639 74.2502 48.1481 74.2502 48.2033C74.266 48.2821 74.2896 48.361 74.3212 48.4319C74.7 49.4726 76.0809 49.9141 77.012 49.2755C77.083 49.2282 77.1619 49.1572 77.1619 49.1651L77.2092 49.1257L77.225 49.1099H77.2171L77.1224 49.2282C75.8284 50.7577 74.5737 52.3818 73.2323 53.8798C72.5537 54.6051 71.9066 55.4014 71.0071 55.9612L70.8808 56.0322C70.8098 56.0716 70.7072 56.111 70.6283 56.1425C69.8708 56.4579 68.9239 56.2608 68.3637 55.6143C67.8587 55.0861 67.6298 54.1479 67.5509 53.5645C67.4562 52.9101 67.4089 52.1769 67.3142 51.5382C67.3142 51.5225 67.3142 51.5146 67.3142 51.5225C67.3142 51.5225 67.3142 51.5461 67.4089 51.7511C67.4247 51.7826 67.4483 51.8142 67.4641 51.8536C67.9376 52.6341 69.0975 52.8864 69.855 52.374L69.926 52.3188C69.9418 52.3109 69.9655 52.2872 69.9497 52.2951C69.8866 52.3503 69.3027 52.9889 69.2159 53.0835C68.2532 54.0927 67.0696 55.157 65.5624 55.4172C63.8107 55.7641 61.8538 54.5578 61.0252 53.0835C59.7706 50.8523 59.7233 48.424 59.1788 46.114L59.163 46.0194C59.1867 46.1219 59.2261 46.248 59.2893 46.3663C59.8416 47.6041 61.6249 47.7066 62.3351 46.6265L62.3035 46.6738C62.2641 46.7211 62.1615 46.8787 62.122 46.9339C60.7648 48.8025 59.4076 50.7025 57.6085 52.2242C56.0304 53.5566 54.247 53.5014 52.9766 51.8142C52.3927 50.9942 52.1796 50.1822 51.9666 49.2834C51.9666 49.2755 51.8956 48.9838 51.8956 48.9759C51.9114 49.0311 51.9271 49.0863 51.9587 49.1336C52.5505 50.4581 54.5153 50.4897 55.1387 49.1572C55.1466 49.1257 55.186 49.0548 55.1939 49.0232C55.1939 49.0075 55.1939 49.0153 55.1939 49.0232C55.1782 49.0705 55.1545 49.2046 55.1229 49.3307C54.9178 50.2531 54.7126 51.2229 54.0024 52.0271C53.3791 52.7918 52.0455 53.1624 51.1065 52.6657C50.2306 52.232 49.6546 51.4673 49.1101 50.7735C48.4 49.8274 47.8082 48.8971 47.2242 47.9589C46.8376 47.3281 46.0091 45.9642 45.7013 45.4675C46.4746 46.3426 47.8634 46.248 48.4947 45.2231C48.5104 45.1837 48.5815 45.0575 48.5815 45.0418C48.5578 45.0891 48.4868 45.3808 48.4631 45.436C48.1317 46.6816 47.8397 47.8879 47.3505 49.1178C46.9323 50.1743 46.2379 51.42 44.857 51.5146C42.8843 51.5382 40.7696 49.6539 39.5386 48.2821C40.4303 49.3386 42.3635 48.8261 42.4661 47.2651C42.3083 49.0626 40.8169 51.0888 39.2466 51.8851L39.073 51.9561L38.8994 52.0271L38.8127 52.0586C38.6548 52.1059 38.4733 52.1453 38.3076 52.169C37.6606 52.2557 37.0688 52.0034 36.6585 51.759C34.7883 50.4818 33.5653 48.6211 32.0502 47.068L31.9634 46.9891C31.9398 46.9655 31.924 46.9497 31.9398 46.9655C31.9398 46.9655 31.9634 46.9812 32.0187 47.0207L32.066 47.0522L32.1528 47.0995C32.9892 47.5095 34.1018 47.0285 34.3938 46.1376C34.4333 46.0194 34.4648 45.8854 34.4727 45.7592C34.4727 45.6804 34.4727 45.704 34.4727 45.7198C34.5122 46.1613 34.6147 46.658 34.7015 47.1941C35.2223 50.3083 36.0272 56.0795 31.5137 56.4894C26.7871 56.6471 23.4651 50.9233 20.8769 47.88C21.1925 48.0298 21.6186 48.0141 21.9579 47.8091L22.4077 47.3912C22.4393 47.3597 22.4629 47.3045 22.4708 47.273C22.1078 48.6369 21.879 50.2531 21.4845 51.6329C21.1136 53.0204 20.293 55.094 18.4228 54.7471C16.6948 54.3371 15.9294 52.6262 15.2429 51.2308C14.9982 50.6946 14.7931 50.1743 14.5958 49.5988L14.8641 50.0718C15.085 50.6552 16.5685 50.6 16.6948 50.2847C16.9552 50.0876 16.9788 49.993 17.0183 49.9535C17.0735 49.8668 17.0656 49.8747 17.0893 49.8274C17.0972 49.8116 17.0893 49.8353 17.0814 49.8668L17.0104 50.1112C16.5448 51.7275 16.0477 53.3279 14.7142 54.5263C13.0887 56.0006 10.5715 55.5118 9.30109 53.8719C7.38363 51.4594 7.00487 47.7223 6.87073 44.8131C6.73658 35.5493 10.177 26.3801 15.9451 19.182C21.2556 12.4411 29.4226 8.75921 37.5817 6.84338C45.7802 4.82505 54.1839 5.07734 62.3035 7.24547C73.6584 9.92605 84.4293 16.6354 90.3474 26.9084C93.0145 31.4969 94.1902 36.9212 94.206 42.172C94.206 42.2981 94.2218 42.5977 94.2139 42.7238C94.1744 43.9774 94.1034 45.3256 94.0008 46.5634C93.8667 48.2033 93.6852 49.8432 93.3696 51.5225C92.9277 53.596 92.2885 56.86 89.5978 57.1359L89.5899 57.1123ZM89.3295 53.3595C89.1243 53.3752 88.9428 53.4383 88.8008 53.5487C88.7456 53.596 88.7771 53.5802 88.8087 53.5171C89.219 52.7603 89.4557 51.7511 89.6293 50.7971C90.0949 48.2112 90.2685 45.4123 90.3553 42.7554C90.3711 42.4558 90.3316 41.9827 90.3237 41.6831C90.229 37.1498 89.1875 32.7505 86.907 28.8321C83.0958 22.3435 76.8463 17.2819 70.0049 14.215C65.7913 12.3622 61.2698 11.1323 56.7326 10.3439C44.8018 8.10483 27.5604 11.7788 19.567 21.358C13.7278 28.3275 10.0034 37.8357 10.5873 46.9812C10.7451 48.6132 10.966 50.4424 11.8419 51.7905C12.055 52.0428 12.1102 52.1217 12.3312 52.2005C12.5126 52.232 12.5048 52.2636 12.7336 52.1217C13.6963 51.2938 14.0435 49.8195 14.5406 48.6606L14.5879 48.5659C14.6116 48.5265 14.6274 48.4871 14.6826 48.4083C14.73 48.3531 14.7773 48.2348 15.0535 48.0219C15.2034 47.6908 16.7105 47.6356 16.9552 48.2427L17.2234 48.7157C17.5312 49.6145 17.9494 50.5764 18.4071 51.3096C18.5649 51.5382 18.8253 51.9246 18.9989 52.0271C18.9989 52.0271 18.9989 52.0271 18.92 52.0034C18.92 52.0034 18.7543 51.9719 18.6596 52.0034C18.557 52.0034 18.4465 52.0665 18.3913 52.0822C18.3597 52.098 18.3282 52.1296 18.3124 52.1296C18.2966 52.1296 18.2887 52.1453 18.2729 52.1532C18.2571 52.169 18.2571 52.169 18.2571 52.169C18.2571 52.169 18.2729 52.1374 18.2887 52.1217L18.336 52.0349C18.8884 50.8917 19.1725 49.1336 19.4486 47.8327C19.5749 47.2651 19.6775 46.6501 19.9063 46.0903C19.9773 45.9484 20.1351 45.6804 20.2377 45.5385L20.5218 45.3808C21.0663 45.0575 21.7212 45.1127 22.2341 45.4044C22.7391 45.6883 23.11 46.0667 23.4572 46.4372C24.4672 47.5174 25.3904 48.6606 26.361 49.7091C27.5841 50.9942 29.6199 53.2176 31.3716 53.0835C31.5926 52.847 31.6557 52.1611 31.6873 51.6959C31.7188 50.8996 31.6478 50.0087 31.5216 49.1021C31.419 48.4477 31.3085 47.675 31.1823 47.0049C31.127 46.5318 31.0008 46.0982 31.0244 45.5621C31.056 44.2612 32.4053 43.4098 33.5811 43.9774C33.7152 44.0405 33.9282 44.1745 34.0229 44.2533C34.67 44.7895 35.2066 45.4675 35.751 46.0667C36.6427 47.0443 37.4397 48.0614 38.4339 48.8025C38.4576 48.8182 38.4733 48.8104 38.3313 48.7709C38.2524 48.7473 38.1419 48.7157 37.8973 48.7315H37.8579C37.8579 48.7315 37.8579 48.7315 37.8421 48.7315H37.8263H37.8026C37.7868 48.7315 37.7711 48.7315 37.7553 48.7394C37.6764 48.7552 37.7395 48.7552 37.8342 48.6763C38.2603 48.361 38.8284 47.5883 38.9626 47.0522C38.9862 46.6816 39.1993 46.1061 39.5465 45.8223C40.3119 45.0969 41.5823 45.2467 42.1978 46.0509C42.2451 46.114 42.4503 46.319 42.5134 46.3821C43.1605 47.0128 43.989 47.7381 44.8097 47.9983C44.6992 47.9983 44.565 47.9983 44.4546 48.0219C44.131 48.0929 43.9574 48.2033 43.7996 48.361C43.7996 48.361 43.8312 48.3137 43.8628 48.2585C44.4703 47.0049 44.7465 45.4754 45.149 44.1114C45.2042 43.9065 45.2989 43.6305 45.4251 43.4255C46.088 42.3296 47.4767 42.2271 48.3132 43.1259C48.4473 43.2678 48.5893 43.4807 48.6998 43.6463C49.0944 44.2691 49.8045 45.4281 50.1991 46.0746C50.9803 47.2651 51.6983 48.5265 52.6689 49.4726C52.6926 49.4884 52.6531 49.4647 52.6531 49.4647C52.6531 49.4647 52.6136 49.4411 52.59 49.4332C52.4164 49.3544 52.1875 49.307 51.9982 49.3228C51.7851 49.3149 51.3827 49.5199 51.3196 49.6303C51.2722 49.6855 51.2801 49.6855 51.2959 49.6539C51.6431 48.9207 51.5484 47.88 52.1402 47.1941C53.1187 46.0509 54.9493 46.5318 55.3044 47.951C55.4622 48.495 55.5569 49.2361 55.8489 49.6855C55.8804 49.7249 55.8647 49.6855 55.7384 49.6224C55.7147 49.6066 55.6753 49.5909 55.6437 49.583C55.4622 49.5357 55.1782 49.5357 55.0361 49.5988C55.0282 49.6066 55.044 49.5988 55.0598 49.583C55.7147 49.1415 56.2276 48.5186 56.7721 47.9037C57.4191 47.1389 58.0504 46.3111 58.658 45.4675C58.7132 45.3729 59.163 44.7658 59.2182 44.6712C59.4629 44.2612 59.8968 43.8986 60.3861 43.7882C61.4592 43.5044 62.5403 44.2533 62.6981 45.3098C63.0532 46.863 63.2741 48.7079 63.6844 50.1191C63.929 50.8681 64.1894 51.6486 64.9233 51.7905C65.0022 51.7905 65.2784 51.6644 65.5703 51.4436C66.0359 51.1125 66.6277 50.4345 67.0538 49.9772C67.2432 49.7643 67.5667 49.4411 67.8665 49.2519C68.7345 48.6763 70.0128 48.9838 70.5336 49.8747C70.8808 50.466 70.8966 50.8917 70.9755 51.4594C71.0229 51.9876 71.1018 52.9337 71.228 53.391C71.228 53.391 71.228 53.3674 71.1886 53.3122C71.1649 53.2727 71.157 53.2649 71.1097 53.1939C70.6836 52.6578 69.8787 52.4528 69.2711 52.6893C69.2238 52.7051 69.1527 52.7366 69.1054 52.7682C69.0817 52.7839 69.1527 52.7366 69.208 52.6814C70.7388 51.2386 72.1118 49.3938 73.4848 47.7539C73.8083 47.3676 74.2896 46.7447 74.6605 46.3978C74.7552 46.319 74.7789 46.2874 74.9288 46.185C75.0235 46.1298 74.8972 46.185 75.1734 46.0509C75.4812 45.909 75.8362 45.8381 76.1677 45.8775C76.9488 45.9563 77.6038 46.5476 77.7932 47.2572C77.9194 47.6908 77.9115 48.1323 77.9431 48.5581C77.9589 49.3544 78.0457 50.4187 78.1798 51.144C78.2429 51.4358 78.2982 51.688 78.3929 51.8615C78.3929 51.8615 78.385 51.8457 78.3613 51.8142C78.0772 51.4594 77.3671 51.3806 77.0593 51.5855C77.0199 51.6092 77.1698 51.4988 77.296 51.3411C77.9115 50.5764 78.4954 49.4253 78.9137 48.4713C79.2293 47.5883 80.4287 47.068 81.3125 47.4385C81.9832 47.6356 82.575 48.5029 82.5355 49.1809V49.3465V49.4017C82.4882 50.4975 82.4724 51.6486 82.5592 52.7287C82.646 53.5171 82.7565 54.4711 83.0721 54.9994C82.9695 54.889 82.6697 54.8259 82.5355 54.8811C82.5355 54.8811 82.5592 54.8811 82.6065 54.8338C83.6639 53.9981 84.3267 52.5947 84.958 51.3884C85.7234 50.0482 87.846 50.1664 88.4536 51.6171C88.5562 51.8142 88.572 52.0271 88.643 52.232C88.8087 52.713 89.0454 53.186 89.2979 53.3437L89.3295 53.3595Z" fill="white"/>
</svg>
