<svg width="15" height="15" viewBox="0 0 15 15" fill="none" xmlns="http://www.w3.org/2000/svg">
<path d="M6.875 9.375H5C3.83515 9.375 3.25272 9.375 2.79329 9.5653C2.18072 9.81904 1.69404 10.3057 1.4403 10.9183C1.25 11.3777 1.25 11.9601 1.25 13.125M9.6875 2.05672C10.6037 2.42759 11.25 3.32582 11.25 4.375M7.49992 13.4375L8.7656 13.1844C8.87596 13.1623 8.93113 13.1513 8.98259 13.1311C9.02826 13.1132 9.07166 13.0899 9.1119 13.0619C9.15723 13.0303 9.19702 12.9905 9.2766 12.9109L13.4375 8.75003C13.7827 8.40484 13.7827 7.84517 13.4375 7.49998C13.0923 7.15481 12.5327 7.15482 12.1875 7.5L8.02658 11.6609C7.947 11.7405 7.90722 11.7803 7.87561 11.8256C7.84754 11.8658 7.82432 11.9092 7.8064 11.9549C7.78622 12.0063 7.77519 12.0615 7.75311 12.1719L7.49992 13.4375ZM8.4375 4.375C8.4375 5.75571 7.31821 6.875 5.9375 6.875C4.55679 6.875 3.4375 5.75571 3.4375 4.375C3.4375 2.99429 4.55679 1.875 5.9375 1.875C7.31821 1.875 8.4375 2.99429 8.4375 4.375Z" stroke="white" stroke-linecap="round" stroke-linejoin="round"/>
</svg>
