<svg width="15" height="16" viewBox="0 0 15 16" fill="none" xmlns="http://www.w3.org/2000/svg">
<path d="M10.625 7.02907V5.77907C10.625 4.05318 9.22589 2.65407 7.5 2.65407C5.77411 2.65407 4.375 4.05318 4.375 5.77907V7.02907M7.5 9.84157V11.0916M5.5 13.9041H9.5C10.5501 13.9041 11.0751 13.9041 11.4762 13.6997C11.829 13.5199 12.1159 13.2331 12.2956 12.8803C12.5 12.4792 12.5 11.9542 12.5 10.9041V10.0291C12.5 8.97897 12.5 8.45392 12.2956 8.05284C12.1159 7.70003 11.829 7.41319 11.4762 7.23343C11.0751 7.02907 10.5501 7.02907 9.5 7.02907H5.5C4.4499 7.02907 3.92485 7.02907 3.52377 7.23343C3.17096 7.41319 2.88413 7.70003 2.70436 8.05284C2.5 8.45392 2.5 8.97897 2.5 10.0291V10.9041C2.5 11.9542 2.5 12.4792 2.70436 12.8803C2.88413 13.2331 3.17096 13.5199 3.52377 13.6997C3.92485 13.9041 4.4499 13.9041 5.5 13.9041Z" stroke="#505050" stroke-linecap="round" stroke-linejoin="round"/>
</svg>
