<svg width="15" height="16" viewBox="0 0 15 16" fill="none" xmlns="http://www.w3.org/2000/svg">
<path d="M1.25 5.15407L6.35307 8.72622C6.76631 9.01548 6.97292 9.16011 7.19766 9.21614C7.39618 9.26562 7.60382 9.26562 7.80234 9.21614C8.02708 9.16011 8.23369 9.01548 8.64692 8.72622L13.75 5.15407M4.25 13.2791H10.75C11.8001 13.2791 12.3251 13.2791 12.7262 13.0747C13.079 12.8949 13.3659 12.6081 13.5456 12.2553C13.75 11.8542 13.75 11.3292 13.75 10.2791V6.27907C13.75 5.22897 13.75 4.70392 13.5456 4.30284C13.3659 3.95003 13.079 3.66319 12.7262 3.48343C12.3251 3.27907 11.8001 3.27907 10.75 3.27907H4.25C3.1999 3.27907 2.67485 3.27907 2.27377 3.48343C1.92096 3.66319 1.63413 3.95003 1.45436 4.30284C1.25 4.70392 1.25 5.22897 1.25 6.27907V10.2791C1.25 11.3292 1.25 11.8542 1.45436 12.2553C1.63413 12.6081 1.92096 12.8949 2.27377 13.0747C2.67485 13.2791 3.1999 13.2791 4.25 13.2791Z" stroke="#505050" stroke-linecap="round" stroke-linejoin="round"/>
</svg>
