<svg width="16" height="16" viewBox="0 0 16 16" fill="none" xmlns="http://www.w3.org/2000/svg">
<path d="M13.5367 11.6638L9.45911 7.93691M5.95146 7.93691L1.87384 11.6638M1.56689 4.83114L6.57884 8.38131C6.9847 8.66879 7.18762 8.81254 7.40835 8.86821C7.60333 8.91739 7.80725 8.91739 8.00222 8.86821C8.22295 8.81254 8.42588 8.6688 8.83173 8.38131L13.8437 4.83114M4.51332 12.9061H10.8973C11.9286 12.9061 12.4443 12.9061 12.8382 12.703C13.1847 12.5244 13.4664 12.2393 13.643 11.8887C13.8437 11.4901 13.8437 10.9682 13.8437 9.9246V5.94922C13.8437 4.90558 13.8437 4.38377 13.643 3.98515C13.4664 3.63452 13.1847 3.34944 12.8382 3.17079C12.4443 2.96768 11.9286 2.96768 10.8973 2.96768H4.51332C3.48198 2.96768 2.9663 2.96768 2.57238 3.17079C2.22588 3.34944 1.94416 3.63452 1.76761 3.98515C1.56689 4.38377 1.56689 4.90558 1.56689 5.94922V9.9246C1.56689 10.9682 1.56689 11.4901 1.76761 11.8887C1.94416 12.2393 2.22588 12.5244 2.57238 12.703C2.9663 12.9061 3.48198 12.9061 4.51332 12.9061Z" stroke="#CCCCCC" stroke-linecap="round" stroke-linejoin="round"/>
</svg>
