<svg width="15" height="16" viewBox="0 0 15 16" fill="none" xmlns="http://www.w3.org/2000/svg">
<path d="M5.23767 6.31234C5.67267 7.21835 6.26566 8.0675 7.01665 8.81849C7.76764 9.56947 8.61679 10.1625 9.5228 10.5975C9.60073 10.6349 9.6397 10.6536 9.689 10.668C9.86422 10.719 10.0794 10.6824 10.2278 10.5761C10.2695 10.5462 10.3053 10.5105 10.3767 10.439C10.5952 10.2205 10.7045 10.1113 10.8143 10.0398C11.2286 9.77047 11.7627 9.77047 12.177 10.0398C12.2869 10.1113 12.3962 10.2205 12.6147 10.439L12.7365 10.5608C13.0686 10.893 13.2347 11.059 13.3249 11.2374C13.5043 11.5921 13.5043 12.0111 13.3249 12.3658C13.2347 12.5441 13.0686 12.7102 12.7365 13.0424L12.6379 13.1409C12.3069 13.4719 12.1414 13.6374 11.9164 13.7638C11.6667 13.9041 11.2789 14.0049 10.9925 14.0041C10.7344 14.0033 10.558 13.9532 10.2052 13.8531C8.30938 13.315 6.5204 12.2997 5.02791 10.8072C3.53542 9.31474 2.52013 7.52576 1.98202 5.62989C1.88189 5.27711 1.83183 5.10072 1.83106 4.84263C1.83021 4.55624 1.93106 4.16843 2.07132 3.91874C2.19773 3.69372 2.36323 3.52821 2.69425 3.1972L2.79277 3.09868C3.12492 2.76653 3.291 2.60045 3.46936 2.51024C3.82409 2.33082 4.243 2.33082 4.59773 2.51024C4.77609 2.60045 4.94217 2.76653 5.27432 3.09868L5.39611 3.22047C5.61462 3.43898 5.72387 3.54823 5.7953 3.65809C6.06467 4.07239 6.06467 4.60651 5.7953 5.02081C5.72387 5.13068 5.61462 5.23993 5.39611 5.45843C5.32467 5.52988 5.28894 5.5656 5.25904 5.60736C5.15279 5.75575 5.1161 5.97091 5.16717 6.14613C5.18155 6.19544 5.20026 6.23441 5.23767 6.31234Z" stroke="#505050" stroke-linecap="round" stroke-linejoin="round"/>
</svg>
