<svg width="15" height="16" viewBox="0 0 15 16" fill="none" xmlns="http://www.w3.org/2000/svg">
<path d="M7.50003 10.1541C5.51873 10.1541 3.75678 11.1107 2.63503 12.5953C2.39359 12.9148 2.27288 13.0746 2.27683 13.2905C2.27988 13.4573 2.38463 13.6678 2.51588 13.7708C2.68577 13.9041 2.9212 13.9041 3.39205 13.9041H11.608C12.0789 13.9041 12.3143 13.9041 12.4842 13.7708C12.6154 13.6678 12.7202 13.4573 12.7232 13.2905C12.7272 13.0746 12.6065 12.9148 12.365 12.5953C11.2433 11.1107 9.48133 10.1541 7.50003 10.1541Z" stroke="#505050" stroke-linecap="round" stroke-linejoin="round"/>
<path d="M7.50003 8.27907C9.05333 8.27907 10.3125 7.01987 10.3125 5.46657C10.3125 3.91327 9.05333 2.65407 7.50003 2.65407C5.94673 2.65407 4.68753 3.91327 4.68753 5.46657C4.68753 7.01987 5.94673 8.27907 7.50003 8.27907Z" stroke="#505050" stroke-linecap="round" stroke-linejoin="round"/>
</svg>
